<?xml version="1.0" standalone="no"?>
<!DOCTYPE svg PUBLIC "-//W3C//DTD SVG 1.1//EN" "http://www.w3.org/Graphics/SVG/1.1/DTD/svg11.dtd" >
<svg xmlns="http://www.w3.org/2000/svg" xmlns:xlink="http://www.w3.org/1999/xlink" version="1.1">
<metadata>
Created by FontForge 20150102 at Sun Feb  1 09:23:21 2015
 By uniteet7
Copyright (c) 1981, 1982, 1983, 1989 and 1993, Linotype Library GmbH or its affiliated Linotype-Hell companies. All rights reserved.

The digitally encoded machine readable software for producing the Typefaces licensed to you is now the property of Heidelberger Druckmaschinen AG and its licensors, and may not be reproduced, used, displayed, modified, disclosed or transferred without the express written approval of Heidelberger Druckmaschinen AG.

Copyright (c) 1988, 1990, 1993 Adobe Systems Incorporated. All Rights Reserved.
</metadata>
<defs>
<font id="OptimaBold" horiz-adv-x="556" >
  <font-face 
    font-family="OptimaBold"
    font-weight="700"
    font-stretch="normal"
    units-per-em="1000"
    panose-1="2 0 8 3 8 0 0 2 0 4"
    ascent="800"
    descent="-200"
    x-height="479"
    cap-height="685"
    bbox="-383 -268 1000 921"
    underline-thickness="50"
    underline-position="-75"
    unicode-range="U+0008-FB02"
  />
<missing-glyph horiz-adv-x="364" 
d="M33 0v666h265v-666h-265zM66 33h199v600h-199v-600z" />
    <glyph glyph-name="fi" unicode="fi" horiz-adv-x="611" 
d="M316 474l-94 -2q-20 35 -33.5 71t-13.5 59q0 24 15.5 33.5t44.5 9.5q24 0 50 -9t46 -20l12 4v33q0 26 0.5 53.5t3.5 43.5q-25 5 -42 5q-54 0 -91 -21.5t-61.5 -59.5t-39.5 -90t-25 -113l-70 3q3 -15 3 -27q0 -13 -3 -25l70 1v-82q0 -98 -2 -180t-6 -163q13 2 33 2h42h42
t33 -2q-4 81 -6 163t-2 180v83l94 -2q-1 6 -2 12.5t-1 12.5q0 7 1 13t2 14zM393 668q0 -33 23 -56t56 -23t56 23t23 56t-23 56t-56 23t-56 -23t-23 -56zM405 257v-40q0 -61 -1.5 -115t-6.5 -104q14 2 33 2h42h42.5t32.5 -2q-5 50 -6.5 104t-1.5 115v40q0 61 1.5 114.5
t6.5 107.5q-28 -5 -75 -5q-23 0 -42 1.5t-33 3.5q5 -54 6.5 -107.5t1.5 -114.5z" />
    <glyph glyph-name="fl" unicode="fl" horiz-adv-x="611" 
d="M316 474l-94 -2q-20 35 -33.5 71t-13.5 59q0 24 15.5 33.5t44.5 9.5q24 0 50 -9t46 -20l12 4v33q0 26 0.5 53.5t3.5 43.5q-25 5 -42 5q-54 0 -91 -21.5t-61.5 -59.5t-39.5 -90t-25 -113l-70 3q3 -15 3 -27q0 -13 -3 -25l70 1v-82q0 -98 -2 -180t-6 -163q13 2 33 2h42h42
t33 -2q-4 81 -6 163t-2 180v83l94 -2q-1 6 -2 12.5t-1 12.5q0 7 1 13t2 14zM405 406v-65q0 -98 -2 -180t-6 -163q13 2 33 2h42h42t33 -2q-4 81 -6 163t-2 180v65q0 98 2 180t6 166q-13 -2 -33 -3.5t-42 -1.5t-42 1.5t-33 3.5q4 -84 6 -166t2 -180z" />
    <glyph glyph-name=".notdef" horiz-adv-x="364" 
d="M33 0v666h265v-666h-265zM66 33h199v600h-199v-600z" />
    <glyph glyph-name=".null" horiz-adv-x="0" 
 />
    <glyph glyph-name=".null" horiz-adv-x="0" 
 />
    <glyph glyph-name=".null" horiz-adv-x="0" 
 />
    <glyph glyph-name="nonmarkingreturn" horiz-adv-x="333" 
 />
    <glyph glyph-name="space" unicode="&#x9;" horiz-adv-x="278" 
 />
    <glyph glyph-name="space" unicode=" " horiz-adv-x="278" 
 />
    <glyph glyph-name="space" unicode="&#xd;" horiz-adv-x="278" 
 />
    <glyph glyph-name="exclam" unicode="!" horiz-adv-x="333" 
d="M85 64q0 -34 24 -56.5t58 -22.5t58 22.5t24 56.5t-24 58t-58 24t-58 -24t-24 -58zM153 215h28q24 118 38 190t21 114.5t9 63t2 35.5q0 36 -23 58t-61 22t-61 -22t-23 -58q0 -15 2 -35.5t9 -63t21 -114.5t38 -190z" />
    <glyph glyph-name="quotedbl" unicode="&#x22;" horiz-adv-x="333" 
d="M210 708v-342h100v342h-100zM23 708v-342h100v342h-100z" />
    <glyph glyph-name="numbersign" unicode="#" 
d="M176 423l-40 -190q-13 0 -27.5 0.5t-27 1.5t-23 1.5t-15.5 0.5q-4 -38 -8.5 -60t-12.5 -46q8 2 27 2h66q-8 -42 -16 -74.5t-17 -58.5h15h14h11.5h11.5q2 13 4 24.5t4.5 25t6 32.5t9.5 51h158q-8 -42 -16 -74.5t-17 -58.5h15h14h11.5h11.5q2 13 4 24.5t4.5 25t6 32.5
t9.5 51q13 0 27.5 -0.5t27 -1.5t23 -1.5t15.5 -0.5q4 37 8.5 60t12.5 46q-8 -2 -28 -2h-65l40 190q13 0 27.5 -0.5t27 -1.5t23 -1.5t15.5 -0.5q4 37 8.5 60t12.5 46q-8 -2 -28 -2h-65q8 42 16 74.5t17 61.5q-8 -1 -15 -2t-14 -1q-6 0 -11.5 1t-11.5 2q-2 -16 -3.5 -27.5
t-4 -25t-6.5 -32.5t-10 -51h-158q8 42 16 74.5t17 61.5q-8 -1 -15 -2t-14 -1q-6 0 -11.5 1t-11.5 2q-2 -16 -3.5 -27.5t-4 -25t-6.5 -32.5t-10 -51q-13 0 -27.5 0.5t-27 1.5t-23 1.5t-15.5 0.5q-4 -38 -8.5 -60t-12.5 -46q8 2 27 2h66zM377 423l-40 -190h-158l40 190h158z
" />
    <glyph glyph-name="dollar" unicode="$" 
d="M301 35v224q51 -9 74.5 -39t23.5 -76q0 -24 -8.5 -44t-22 -34t-31.5 -22t-36 -9zM243 621v-202q-40 11 -65 37t-25 63q0 26 8.5 45t21.5 32t29 19t31 6zM243 269v-234q-30 4 -56 16.5t-46 30.5t-33.5 40t-19.5 46h-19q-5 -30 -11 -59.5t-14 -59.5q14 -12 37 -23.5
t50 -19.5t56 -13.5t56 -5.5l-4 -110q8 1 16.5 2.5t16.5 1.5t16.5 -1.5t16.5 -2.5l-4 110q41 2 80 16.5t70 42t49.5 66.5t18.5 87q0 52 -17.5 86t-47 56.5t-69 37t-84.5 26.5v216q18 0 36.5 -7.5t35.5 -21t31 -32.5t22 -42h14q6 26 16 50.5t21 50.5q-14 12 -36.5 22
t-47.5 16.5t-49.5 10.5t-42.5 4l4 83q-8 -1 -16.5 -2.5t-16.5 -1.5t-16.5 1.5t-16.5 2.5l4 -83q-99 -9 -152.5 -63t-53.5 -136q0 -45 14 -78t41 -57.5t65 -41t86 -27.5z" />
    <glyph glyph-name="percent" unicode="%" horiz-adv-x="1000" 
d="M647 693l-348 -727q7 1 13.5 1.5t13.5 0.5t13.5 -0.5t13.5 -1.5l348 727q-7 -1 -13.5 -1.5t-13.5 -0.5t-13.5 0.5t-13.5 1.5zM339 512q0 -43 -6 -70.5t-16 -43.5t-22.5 -21.5t-24.5 -5.5q-41 0 -55.5 32.5t-14.5 89.5q0 72 17 109.5t56 37.5q35 0 50.5 -33.5t15.5 -94.5z
M100 504q0 -39 12.5 -69.5t35 -51.5t54 -32.5t68.5 -11.5q36 0 67 13t53.5 36t35.5 54.5t13 68.5t-13 66.5t-35.5 50.5t-53.5 32.5t-67 11.5q-34 0 -65 -13t-54.5 -35.5t-37 -53t-13.5 -66.5zM800 157q0 -43 -6 -70.5t-16 -43.5t-22.5 -21.5t-24.5 -5.5q-41 0 -55.5 32.5
t-14.5 89.5q0 72 17 109.5t56 37.5q35 0 50.5 -33.5t15.5 -94.5zM561 149q0 -78 47.5 -120t122.5 -42q36 0 67 11.5t53.5 34.5t35.5 54.5t13 68.5t-13 66.5t-35.5 50.5t-53.5 32.5t-67 11.5q-34 0 -65 -13t-54.5 -35.5t-37 -53t-13.5 -66.5z" />
    <glyph glyph-name="ampersand" unicode="&#x26;" horiz-adv-x="722" 
d="M173 196q0 38 20 66.5t55 54.5q43 -57 87.5 -111.5t89.5 -109.5q-20 -18 -48.5 -28.5t-58.5 -10.5q-34 0 -61 12.5t-46 32.5t-28.5 44.5t-9.5 49.5zM275 563q0 35 21 53.5t50 18.5q27 0 49 -20t22 -53q0 -23 -8 -44t-20 -39t-26 -32t-26 -23q-25 35 -43.5 71.5
t-18.5 67.5zM453 61l48 -63q21 1 41.5 1.5t40.5 0.5q28 0 57 -0.5t66 -1.5q-17 14 -36.5 34t-39 41.5t-38.5 42.5t-35 40q37 42 71.5 83t67.5 92q-14 13 -27.5 27.5t-27.5 30.5q-31 -66 -62 -114t-57 -79q-42 48 -81 94.5t-77 97.5q66 42 97 81.5t31 88.5q0 30 -12 53
t-34 38t-51.5 23t-64.5 8q-33 0 -66 -8.5t-59 -28t-42.5 -49.5t-16.5 -74q0 -42 20.5 -80.5t52.5 -83.5q-40 -21 -73.5 -42t-57 -46t-36.5 -55.5t-13 -69.5q0 -30 12 -58.5t36 -51t59.5 -35.5t82.5 -13q60 0 119.5 19.5t104.5 56.5z" />
    <glyph glyph-name="quotesingle" unicode="'" horiz-adv-x="278" 
d="M89 708v-342h100v342h-100z" />
    <glyph glyph-name="parenleft" unicode="(" horiz-adv-x="333" 
d="M316 672l-26 26q-46 -38 -84.5 -78.5t-66.5 -90t-43.5 -112t-15.5 -143.5q0 -71 15 -130t42 -108.5t65.5 -92t85.5 -80.5l27 25q-70 80 -98.5 170.5t-28.5 208.5q0 69 6.5 125.5t21.5 105t39.5 91t60.5 83.5z" />
    <glyph glyph-name="parenright" unicode=")" horiz-adv-x="333" 
d="M43 698l-26 -26q36 -41 60.5 -83.5t39.5 -91t21.5 -105t6.5 -125.5q0 -118 -28.5 -208.5t-98.5 -170.5l27 -25q47 38 85.5 80.5t65.5 92t42 108.5t15 130q0 81 -15.5 143.5t-43.5 112t-66.5 90t-84.5 78.5z" />
    <glyph glyph-name="asterisk" unicode="*" horiz-adv-x="444" 
d="M368 624q-11 -9 -29.5 -23.5t-37.5 -29t-35 -26t-23 -15.5q0 8 2 28t4.5 43.5t6 46.5t6.5 37q-22 -5 -40 -5t-40 5q3 -14 6.5 -37t6 -46.5t4.5 -43.5t2 -28q-7 4 -24 15.5t-36 26t-37 29t-28 23.5q-4 -10 -7.5 -19.5t-8.5 -17.5q-5 -9 -11.5 -17t-12.5 -16
q13 -5 34 -13.5t42.5 -18t40 -17.5t26.5 -12q-8 -4 -26.5 -12t-40 -17.5t-42.5 -18t-34 -13.5q6 -8 12.5 -16t11.5 -17q5 -8 8.5 -17.5t7.5 -19.5q11 9 29 23t36.5 28.5t35.5 26t24 16.5q0 -9 -2 -29t-4.5 -43.5t-6 -46t-6.5 -36.5q22 5 40 5t40 -5q-3 14 -6.5 36.5t-6 46
t-4.5 43.5t-2 29q7 -4 23 -15.5t35 -26t37.5 -29t29.5 -23.5q4 10 7.5 19.5t8.5 18.5q5 8 11.5 16t12.5 16q-13 5 -34 14t-43 18t-40 17t-26 12q8 4 26 12t40 17t43 18t34 14q-6 8 -12.5 16t-11.5 17q-5 8 -8.5 17.5t-7.5 19.5z" />
    <glyph glyph-name="plus" unicode="+" horiz-adv-x="606" 
d="M256 506v-206h-206v-94h206v-206h94v206h206v94h-206v206h-94z" />
    <glyph glyph-name="comma" unicode="," horiz-adv-x="278" 
d="M21 -182l25 -10q63 87 99 138t54.5 78.5t23 39.5t4.5 21q0 15 -6.5 27t-17 19.5t-23 11.5t-24.5 4q-20 0 -34 -10t-28 -44t-31 -98.5t-42 -176.5z" />
    <glyph glyph-name="hyphen" unicode="-" horiz-adv-x="333" 
d="M42 274v-110h249v110h-249z" />
    <glyph glyph-name="period" unicode="." horiz-adv-x="278" 
d="M57 64q0 -34 24 -56.5t58 -22.5t58 22.5t24 56.5t-24 58t-58 24t-58 -24t-24 -58z" />
    <glyph glyph-name="slash" unicode="/" horiz-adv-x="389" 
d="M296 700l-286 -717q11 1 21 1.5t21 0.5t21 -0.5t20 -1.5l286 717q-11 -1 -21 -1.5t-21 -0.5t-21 0.5t-20 1.5z" />
    <glyph glyph-name="zero" unicode="0" 
d="M364 332q0 -94 -5.5 -153t-16 -92.5t-27 -45.5t-38.5 -12q-28 0 -45 18t-26 56t-11.5 97.5t-2.5 141.5q0 86 5 141.5t16 88.5t27.5 46t38.5 13t38 -12.5t26.5 -45.5t15.5 -91t5 -150zM39 333q0 -80 14 -144.5t43.5 -109.5t74.5 -68.5t107 -23.5q121 0 180 94.5t59 266.5
q0 162 -61.5 243t-170.5 81q-118 0 -182 -88t-64 -251z" />
    <glyph glyph-name="one" unicode="1" 
d="M370 672l-19 8q-78 -40 -148 -70.5t-148 -58.5q9 -7 23.5 -23.5t25.5 -31.5q14 6 31 14.5t33.5 17t30.5 15.5t21 10v-282q0 -42 -1.5 -83t-3 -77.5t-3.5 -66.5t-3 -46q20 2 39.5 2h39.5h39t39 -2q-3 73 -4.5 129t-1.5 109v76v61q0 38 1 78t2.5 79t3 75.5t3.5 66.5z" />
    <glyph glyph-name="two" unicode="2" 
d="M42 40v-42q54 2 108 2h108h112t112 -2q-1 14 -2.5 30t-1.5 33t1.5 32.5t2.5 32.5q-72 -5 -141.5 -6t-141.5 -2l-1 2q87 74 142.5 130t87 100.5t43.5 80t12 68.5q0 29 -10.5 59.5t-37 56t-72 41.5t-114.5 16q-88 0 -139 -37t-69 -91q20 -16 39 -31.5t39 -34.5l10 3
q0 20 4 45t15 47.5t29.5 38t46.5 15.5q19 0 37 -7.5t32.5 -24.5t23 -44.5t8.5 -68.5q0 -49 -15 -98t-49 -102t-88 -112.5t-131 -129.5z" />
    <glyph glyph-name="three" unicode="3" 
d="M178 369v-51l22 2t23 1q54 0 84 -40.5t30 -106.5q0 -32 -8.5 -58.5t-24 -46t-36 -30t-44.5 -10.5t-42.5 9.5t-32 26t-22 37.5t-11.5 44l-13 3q-14 -22 -29.5 -43.5t-32.5 -43.5q24 -32 70.5 -53.5t127.5 -21.5q47 0 92 12.5t80.5 38.5t57 63t21.5 84q0 44 -10.5 73
t-31.5 47.5t-51.5 29t-70.5 16.5v9q66 23 102.5 59t36.5 96q0 32 -11 60.5t-36 50t-65 34t-99 12.5q-83 0 -127 -26t-70 -72q17 -17 35 -34t32 -34l14 3q3 25 9.5 47t17.5 38.5t27.5 26.5t39.5 10q35 0 60 -29.5t25 -95.5q0 -67 -26.5 -103.5t-86.5 -36.5q-7 0 -12.5 1
t-13.5 2z" />
    <glyph glyph-name="four" unicode="4" 
d="M288 558v-292h-196q24 37 52 80t55 83.5t50 74.5t37 54h2zM288 156l-9 -158q19 2 38 2h38h38t38 -2q-6 38 -7.5 78t-1.5 82l88 -6q-2 14 -3 29t-1 29t1 29t3 30l-88 -7q0 62 0.5 125t1.5 118.5t3 99.5t5 67q-17 -2 -32.5 -3.5t-32.5 -1.5t-32.5 1.5t-32.5 3.5
q-72 -106 -139.5 -209.5t-136.5 -209.5q2 -12 3.5 -24t1.5 -24t-1.5 -24t-3.5 -25h262z" />
    <glyph glyph-name="five" unicode="5" 
d="M101 314l24 -13q4 7 13 14.5t20.5 13.5t24 10t23.5 4q24 0 45 -8.5t37.5 -26.5t26 -46t9.5 -67q0 -50 -11 -82t-28 -51t-37 -26t-38 -7q-48 0 -73 28.5t-41 85.5h-14q-11 -26 -22.5 -51.5t-27.5 -51.5q31 -25 78 -39t98 -14q60 0 109.5 15.5t85 45t55 70.5t19.5 89
q0 38 -14 72t-40.5 59.5t-65.5 40.5t-89 15q-33 0 -63 -6.5t-50 -21.5q0 24 0.5 51.5t1.5 52.5t2.5 44t3.5 28q24 3 54.5 3.5t79.5 0.5q13 0 35.5 -1t46 -2.5t43.5 -3t28 -2.5q-2 16 -3.5 32t-1.5 32t1.5 32t3.5 32q-32 -3 -66.5 -5t-65.5 -2.5t-56.5 -1t-40.5 -0.5
t-32.5 0.5t-33.5 1.5t-29.5 2.5t-22.5 3.5l-8 -7q3 -11 5.5 -36.5t4 -56t2.5 -62t1 -54.5q0 -13 -0.5 -31t-1.5 -36.5t-2.5 -36.5z" />
    <glyph glyph-name="six" unicode="6" 
d="M372 188q0 -75 -21 -117t-63 -42q-38 0 -61.5 38t-23.5 131q0 39 7 67t18.5 45t27 25t31.5 8q18 0 33.5 -8t27 -26t18 -47.5t6.5 -73.5zM432 622l6 6q-10 20 -18 39q-14 2 -27.5 3.5t-30.5 1.5q-67 0 -123.5 -28t-97.5 -80.5t-63.5 -128t-22.5 -171.5q0 -70 17.5 -122.5
t49.5 -87.5t76.5 -51t99.5 -16q46 0 87 15t72 44.5t49.5 71t18.5 91.5q0 48 -15 84t-40.5 59.5t-59 35.5t-70.5 12q-51 0 -84.5 -16t-53.5 -41l-2 2q2 73 18 127t40 89t54 52.5t60 17.5q20 0 33.5 -2t26.5 -7z" />
    <glyph glyph-name="seven" unicode="7" 
d="M517 645l-7 13q-29 -1 -58 -1.5t-58 -0.5q-57 0 -109.5 1t-96.5 2.5t-78.5 3t-55.5 2.5q2 -17 3.5 -34.5t1.5 -34.5t-1.5 -35t-3.5 -35q42 3 95.5 5t104 3t89.5 1.5t52 0.5q-80 -138 -163.5 -270.5t-176.5 -267.5q14 2 33 2h34h29.5t28.5 -2q70 162 155 322t182 325z" />
    <glyph glyph-name="eight" unicode="8" 
d="M357 508q0 -60 -22.5 -93.5t-58.5 -33.5q-29 0 -53 29.5t-24 87.5q0 63 18.5 98t63.5 35q39 0 57.5 -34t18.5 -89zM180 370v-7q-27 -6 -52 -20.5t-43.5 -37t-30 -53.5t-11.5 -71q0 -49 17.5 -86t48.5 -61.5t73.5 -35.5t92.5 -11q51 0 95 12t75.5 38.5t49.5 66t18 91.5
q0 38 -12.5 67.5t-32 50.5t-44 33.5t-47.5 16.5v7q23 5 44 17t36.5 30.5t24.5 43.5t9 57q0 31 -13 59t-39.5 49t-67 33.5t-94.5 12.5q-46 0 -84.5 -10.5t-67 -31.5t-44.5 -51.5t-16 -69.5q0 -27 9.5 -50.5t25 -41.5t36.5 -30.5t44 -16.5zM365 185q0 -83 -26.5 -121.5
t-60.5 -38.5q-39 0 -63 39.5t-24 118.5q0 85 23.5 121t61.5 36q39 0 64 -37t25 -118z" />
    <glyph glyph-name="nine" unicode="9" 
d="M353 458q0 -39 -7 -67t-18.5 -45t-26.5 -25t-32 -8q-18 0 -33.5 8t-27 26t-18 48t-6.5 73q0 75 21 117t63 42q38 0 61.5 -38t23.5 -131zM92 66l-7 -7q8 -15 14 -30t11 -29q12 -6 34.5 -9.5t40.5 -3.5q71 0 129 26.5t99.5 78.5t64.5 127.5t23 172.5q0 70 -17.5 122.5
t-49.5 87.5t-76.5 52.5t-99.5 17.5q-53 0 -95 -16.5t-71.5 -46t-45 -71t-15.5 -91.5q0 -48 15.5 -83.5t41.5 -59.5t60.5 -36t72.5 -12q28 0 48.5 4t36 11.5t27 18t20.5 22.5l2 -2q-2 -73 -17.5 -126t-39.5 -87.5t-53.5 -51.5t-58.5 -17q-35 0 -56 12t-38 26z" />
    <glyph glyph-name="colon" unicode=":" horiz-adv-x="278" 
d="M57 392q0 -34 24 -58t58 -24t58 24t24 58t-24 58t-58 24t-58 -24t-24 -58zM57 64q0 -34 24 -56.5t58 -22.5t58 22.5t24 56.5t-24 58t-58 24t-58 -24t-24 -58z" />
    <glyph glyph-name="semicolon" unicode=";" horiz-adv-x="278" 
d="M57 392q0 -34 24 -58t58 -24t58 24t24 58t-24 58t-58 24t-58 -24t-24 -58zM21 -182l25 -10q63 87 99 138t54.5 78.5t23 39.5t4.5 21q0 15 -6.5 27t-17 19.5t-23 11.5t-24.5 4q-20 0 -34 -10t-28 -44t-31 -98.5t-42 -176.5z" />
    <glyph glyph-name="less" unicode="&#x3c;" horiz-adv-x="606" 
d="M50 293v-80l506 -219v92l-387 167l387 167v94z" />
    <glyph glyph-name="equal" unicode="=" horiz-adv-x="606" 
d="M50 186v-94h506v94h-506zM50 414v-94h506v94h-506z" />
    <glyph glyph-name="greater" unicode="&#x3e;" horiz-adv-x="606" 
d="M50 420l387 -167l-387 -167v-92l506 219v80l-506 221v-94z" />
    <glyph glyph-name="question" unicode="?" horiz-adv-x="444" 
d="M134 64q0 -34 24 -56.5t58 -22.5t58 22.5t24 56.5t-24 58t-58 24t-58 -24t-24 -58zM66 661l4 -68h12q11 24 33 39t52 15q14 0 27.5 -3.5t24.5 -11.5t18 -21t7 -33q0 -14 -4 -26t-12.5 -24.5t-22 -27.5t-32.5 -34q-26 -27 -48.5 -58.5t-22.5 -73.5q0 -26 9.5 -49.5
t27.5 -41t44.5 -28t60.5 -10.5q17 0 31 2t29 6q6 22 16 41l-9 5q-11 -6 -21 -9.5t-22 -3.5q-23 0 -36.5 15.5t-13.5 32.5q0 29 25 55t55 55.5t55 65t25 81.5q0 36 -14 63.5t-38.5 46t-57 28t-69.5 9.5q-39 0 -75 -10t-58 -27z" />
    <glyph glyph-name="at" unicode="@" horiz-adv-x="750" 
d="M449 440q0 -34 -7 -71.5t-20.5 -68.5t-32.5 -51.5t-43 -20.5q-23 0 -36 18t-13 50q0 42 8 81t21.5 68.5t31.5 47.5t38 18q24 0 38.5 -18t14.5 -53zM479 529l-13 -55h-2q-12 34 -32.5 51.5t-58.5 17.5q-31 0 -60.5 -16t-52.5 -47t-37 -75t-14 -101q0 -60 28 -90.5
t70 -30.5q38 0 70.5 24t56.5 66h2q0 -45 20.5 -68.5t65.5 -23.5q30 0 59.5 15.5t53.5 44t39 69t15 89.5q0 46 -15.5 91t-49.5 81t-87.5 58.5t-129.5 22.5q-69 0 -131.5 -24t-110 -68t-75.5 -105.5t-28 -135.5q0 -70 23.5 -124.5t63 -91.5t91.5 -56t109 -19q40 0 74.5 8.5
t64 21t53.5 27.5t42 28l3 31q-43 -39 -98 -61.5t-106 -22.5q-57 0 -102.5 20.5t-77 56t-48.5 83.5t-17 103q0 59 20 113.5t57 96t89.5 66.5t116.5 25q63 0 105.5 -22t69 -57.5t38 -80.5t11.5 -90q0 -38 -9 -68t-23 -50.5t-31 -31.5t-34 -11q-14 0 -25 10t-11 29q0 13 1.5 27
t7 42t16 77t28.5 131q-11 -1 -21 -2t-21 -1t-21.5 1t-21.5 2z" />
    <glyph glyph-name="A" unicode="A" horiz-adv-x="667" 
d="M299 497q-26 -60 -49 -118.5t-45 -119.5h183q-22 61 -43.5 119.5t-45.5 118.5zM653 -2q-24 2 -45.5 2h-42.5h-42.5t-42.5 -2q-16 49 -33 100t-36 102q-32 1 -64 1.5t-64 0.5q-26 0 -52 -0.5t-52 -1.5q-20 -51 -37 -102t-31 -100q-12 2 -23.5 2h-23.5h-24t-26 -2
q12 26 32 72t44 104t51.5 124.5t55 134.5t54 134t48.5 123q10 -2 19 -3.5t19 -1.5t19 1.5t19 3.5q32 -85 68.5 -182t73.5 -190.5t72 -177.5t64 -142z" />
    <glyph glyph-name="B" unicode="B" horiz-adv-x="611" 
d="M404 188q0 -33 -9 -58t-24 -42.5t-35 -26.5t-42 -9q-17 0 -29 0.5t-26 1.5q0 13 -0.5 33t-0.5 44t-0.5 49t-0.5 49q0 31 0.5 53.5t0.5 43.5q9 0 19 0.5t24 0.5q60 0 91.5 -34.5t31.5 -104.5zM397 511q0 -32 -10 -56t-26 -39.5t-36.5 -23.5t-41.5 -8h-45q0 26 -0.5 50.5
t-0.5 51.5q0 26 1 64t3 75q10 2 18.5 2.5t30.5 0.5q30 0 50 -9.5t33 -25t18.5 -37t5.5 -45.5zM89 408v-136q0 -83 -2 -147.5t-6 -126.5q17 2 45.5 2h55.5q38 0 72.5 -1t74.5 -1q45 0 87 9.5t74.5 33.5t52 62t19.5 92q0 45 -19.5 76.5t-47.5 51.5t-59 29.5t-54 10.5v2
q23 4 51.5 15t53 30.5t41.5 49t17 70.5t-14.5 70.5t-41.5 48t-64 27.5t-82 9q-43 0 -90 -2.5t-90 -2.5q-25 0 -45 1.5t-37 3.5q4 -65 6 -129.5t2 -147.5z" />
    <glyph glyph-name="C" unicode="C" horiz-adv-x="667" 
d="M630 111l-13 8q-16 -17 -37.5 -31t-45.5 -23.5t-49 -15t-49 -5.5q-43 0 -85.5 16t-76 50.5t-54.5 89t-21 131.5q0 80 20.5 137.5t53.5 94.5t73.5 55t80.5 18q54 0 94 -20.5t78 -68.5h14q2 26 7.5 51.5t15.5 50.5q-17 10 -41.5 19t-51.5 15.5t-56 10.5t-55 4
q-79 0 -151 -21t-126.5 -66.5t-87 -118t-32.5 -176.5q0 -71 25 -132t72.5 -105.5t116 -69t155.5 -24.5q123 0 204 41q2 21 8 42.5t14 42.5z" />
    <glyph glyph-name="D" unicode="D" horiz-adv-x="778" 
d="M237 250v178v50v60q0 30 0.5 54t0.5 31q23 2 45.5 3.5t58.5 1.5q52 0 94 -18.5t72 -53t46.5 -83.5t16.5 -111q0 -156 -66 -233t-179 -77q-31 0 -52 1t-36 2q0 7 -0.5 31t-0.5 53v60v51zM89 408v-136q0 -83 -2 -147.5t-6 -126.5q17 2 37 2h45q39 0 92 -1t128 -1
q71 0 133.5 25t110 72.5t75 114.5t27.5 150q0 95 -28 157.5t-79 99.5t-121.5 52.5t-156.5 15.5q-66 0 -107 -2.5t-74 -2.5q-25 0 -45 1.5t-37 3.5q4 -65 6 -129.5t2 -147.5z" />
    <glyph glyph-name="E" unicode="E" horiz-adv-x="500" 
d="M80 408v-136q0 -83 -2 -147.5t-6 -126.5q8 1 19.5 1.5t34 0.5h59.5h99q69 0 108.5 -0.5t66.5 -1.5q-2 6 -3 15t-1 25t1 25t3 20q-58 -7 -115 -10t-114 -3q-3 60 -3 125q0 32 0.5 64t0.5 64q113 0 227 -9q-2 16 -3.5 24.5t-1.5 16.5q0 10 1 19t4 26q-57 -3 -109.5 -5
t-117.5 -3q0 55 0.5 109t4.5 109q11 0 37 -1t58.5 -3t67 -4t63.5 -4q-2 11 -3 20t-1 25q0 26 4 42q-20 -2 -77.5 -3.5t-131.5 -1.5q-45 0 -89 2t-89 3q4 -65 6 -129.5t2 -147.5z" />
    <glyph glyph-name="F" unicode="F" horiz-adv-x="500" 
d="M80 408v-136q0 -83 -2 -147.5t-6 -126.5q17 2 37 2h45h45t37 -2q-4 62 -6 126.5t-2 147.5v51q113 0 227 -9q-2 16 -3.5 24.5t-1.5 16.5q0 10 1 19t4 26q-57 -3 -109.5 -5t-117.5 -3q0 55 0.5 109t4.5 109q11 0 37 -1t58.5 -3t67 -4t63.5 -4q-2 11 -3 20t-1 25q0 26 4 42
q-20 -2 -77.5 -3.5t-131.5 -1.5q-45 0 -89 2t-89 3q4 -65 6 -129.5t2 -147.5z" />
    <glyph glyph-name="G" unicode="G" horiz-adv-x="778" 
d="M660 536h14q5 26 12.5 51t15.5 51q-54 29 -109.5 44.5t-131.5 15.5q-88 0 -164 -24t-131.5 -71.5t-87 -119t-31.5 -166.5q0 -77 29.5 -138.5t82 -105t125 -66t158.5 -22.5q66 0 133.5 11t133.5 30q-2 9 -2.5 30.5t-0.5 46.5v33q0 24 0.5 50.5t1.5 50t2.5 41.5t3.5 26
q-10 -2 -27.5 -3.5t-53.5 -1.5q-31 0 -47.5 1.5t-26.5 3.5q1 -14 4 -52.5t3 -119.5q0 -22 -0.5 -40t-2.5 -30q-6 -4 -19 -7.5t-28.5 -5.5t-32 -3.5t-29.5 -1.5q-58 0 -103 21t-76 58.5t-47.5 88.5t-16.5 111q0 79 22 137.5t57.5 97.5t81 58.5t91.5 19.5q69 0 117 -27.5
t80 -72.5z" />
    <glyph glyph-name="H" unicode="H" horiz-adv-x="778" 
d="M541 329v-57q0 -83 -2 -147.5t-6 -126.5q17 2 37 2h45h45t37 -2q-4 62 -6 126.5t-2 147.5v136q0 83 2 147.5t6 129.5q-17 -2 -37 -3.5t-45 -1.5t-45 1.5t-37 3.5q4 -65 6 -128.5t2 -146.5q-29 -1 -63 -1.5t-88 -0.5t-90.5 0.5t-62.5 1.5q0 83 1.5 146.5t6.5 128.5
q-17 -2 -37 -3.5t-45 -1.5t-45 1.5t-37 3.5q4 -65 6 -129.5t2 -147.5v-136q0 -83 -2 -147.5t-6 -126.5q17 2 37 2h45h45t37 -2q-4 62 -6 126.5t-2 147.5v57q38 2 76 3t76 1t76 -1.5t76 -2.5z" />
    <glyph glyph-name="I" unicode="I" horiz-adv-x="333" 
d="M93 408v-136q0 -83 -2 -147.5t-6 -126.5q17 2 37 2h45h45t37 -2q-4 62 -6 126.5t-2 147.5v136q0 83 2 147.5t6 129.5q-17 -2 -37 -3.5t-45 -1.5t-45 1.5t-37 3.5q4 -65 6 -129.5t2 -147.5z" />
    <glyph glyph-name="J" unicode="J" horiz-adv-x="333" 
d="M7 -116l15 -47q110 18 165.5 77t55.5 176q0 48 -1 94t-1 88v136q0 83 2 147.5t6 129.5q-17 -2 -37 -3.5t-45 -1.5t-45 1.5t-37 3.5q4 -65 6 -129.5t2 -147.5v-136q0 -83 -2 -147.5t-6 -126.5q-2 -27 -6.5 -45t-13.5 -30t-23 -21t-35 -18z" />
    <glyph glyph-name="K" unicode="K" horiz-adv-x="611" 
d="M228 309h2q51 -78 100 -156.5t100 -154.5q22 2 43.5 2h43.5h45t52 -2q-20 24 -53 71.5t-71.5 104t-77.5 115.5t-71 108q20 24 56 65.5t75.5 85.5t74.5 82t52 55q-17 -2 -31.5 -3.5t-28.5 -1.5t-28 1.5t-28 3.5q-13 -19 -42 -56.5t-65 -82.5t-75 -92.5t-73 -87.5v96
q0 73 1.5 133t6.5 90q-17 -2 -37 -3.5t-45 -1.5t-45 1.5t-37 3.5q4 -65 6 -129.5t2 -147.5v-136q0 -83 -2 -147.5t-6 -126.5q17 2 37 2h45h45t37 -2q-6 46 -7 124t-1 187z" />
    <glyph glyph-name="L" unicode="L" horiz-adv-x="500" 
d="M89 408v-136q0 -83 -2 -147.5t-6 -126.5q8 1 19.5 1.5t34 0.5h59.5h99q69 0 108.5 -0.5t66.5 -1.5q-2 6 -3 15t-1 25t1 25t3 20q-58 -7 -115 -10t-114 -3q-1 39 -1.5 92t-0.5 110v136q0 83 2 147.5t6 129.5q-17 -2 -37 -3.5t-45 -1.5t-45 1.5t-37 3.5q4 -65 6 -129.5
t2 -147.5z" />
    <glyph glyph-name="M" unicode="M" horiz-adv-x="889" 
d="M169 449h2q57 -115 110.5 -227t107.5 -224q5 1 9.5 1.5t9.5 0.5t9.5 -0.5t9.5 -1.5q54 115 109 229t112 232h2q12 -118 23.5 -238t16.5 -223q21 2 42 2h41h40.5t40.5 -2q-9 50 -20 132t-22 176.5t-22.5 193.5t-21.5 185q-25 -5 -42 -5q-18 0 -43 5
q-54 -121 -113.5 -243.5t-119.5 -234.5q-27 53 -56.5 112t-59 120.5t-59 123.5t-56.5 122q-11 -2 -21 -3.5t-19 -1.5q-11 0 -20.5 1.5t-20.5 3.5q-21 -175 -46 -345t-57 -342q12 2 23.5 2h23.5h23t24 -2l16 224t24 227z" />
    <glyph glyph-name="N" unicode="N" horiz-adv-x="778" 
d="M98 486q0 -76 -2.5 -158.5t-6 -153t-6.5 -119.5t-5 -57q23 2 46 2h23t24 -2q-1 11 -2 29.5t-2 47.5t-1.5 71t-0.5 102v116q0 30 0.5 59t1.5 58q231 -243 437 -483q17 2 39 2q21 0 41 -2v120q0 72 0.5 135.5t2.5 128.5t5 138.5t8 164.5q-28 -5 -45 -5t-45 5q2 -10 3.5 -39
t2 -69t1 -87.5t0.5 -96.5v-97v-87q-112 121 -218.5 238t-215.5 238q-28 -5 -45 -5t-45 5q1 -36 3 -83t2 -116z" />
    <glyph glyph-name="O" unicode="O" horiz-adv-x="833" 
d="M634 362q0 -82 -18.5 -142t-49 -99t-71.5 -58t-86 -19q-42 0 -80 15t-67 48.5t-46 88.5t-17 135q0 64 14.5 120.5t42.5 98.5t68.5 66.5t91.5 24.5q48 0 88.5 -19.5t69 -55.5t44.5 -87.5t16 -116.5zM35 340q0 -94 30 -161.5t81.5 -111t121 -63t148.5 -19.5q84 0 154 27
t120.5 75.5t79 113.5t28.5 140q0 90 -29.5 157.5t-80.5 111.5t-120 66t-149 22q-87 0 -158 -28t-121 -77t-77.5 -114t-27.5 -139z" />
    <glyph glyph-name="P" unicode="P" 
d="M378 493q0 -48 -14 -77t-36 -44.5t-48.5 -20.5t-51.5 -5q0 70 0.5 139.5t1.5 141.5q4 1 9 1h10h23q21 0 40.5 -7t34 -22.5t23 -41.5t8.5 -64zM80 408v-136q0 -83 -2 -147.5t-6 -126.5q17 2 37 2h45h45t37 -2q-5 73 -6.5 147.5t-1.5 149.5h51q56 0 103 12t81.5 37.5
t53.5 66.5t19 98q0 45 -15 77t-47 58q-23 20 -63 30.5t-111 10.5q-36 0 -73.5 -2.5t-72.5 -2.5q-25 0 -45 1.5t-37 3.5q4 -65 6 -129.5t2 -147.5z" />
    <glyph glyph-name="Q" unicode="Q" horiz-adv-x="833" 
d="M634 362q0 -82 -18.5 -142t-49 -99t-71.5 -58t-86 -19q-42 0 -80 15t-67 48.5t-46 88.5t-17 135q0 64 14.5 120.5t42.5 98.5t68.5 66.5t91.5 24.5q48 0 88.5 -19.5t69 -55.5t44.5 -87.5t16 -116.5zM419 698q-87 0 -158 -28t-121 -77t-77.5 -114t-27.5 -139
q0 -93 30 -160.5t80.5 -111t117.5 -63.5t140 -20q49 -33 83 -56.5t62 -44.5t55 -41.5t61 -47.5q40 21 73 35t68 19q-23 11 -53 28t-64 37.5t-71 43t-74 42.5q60 21 107 54.5t80 77.5t50.5 97t17.5 112q0 90 -29.5 157.5t-80.5 111.5t-120 66t-149 22z" />
    <glyph glyph-name="R" unicode="R" horiz-adv-x="611" 
d="M395 497q0 -72 -35 -107.5t-101 -35.5q-5 0 -10.5 0.5t-11.5 1.5q0 136 3 272q41 0 70.5 -4t48 -17.5t27.5 -39.5t9 -70zM246 313l179 -315q23 2 45.5 2h45.5h45t45 -2q-55 83 -110 167.5t-103 169.5q75 19 115 65t40 119q0 45 -17.5 77.5t-47.5 54.5q-13 9 -27.5 15.5
t-34 10.5t-46.5 6t-65 2q-51 0 -85.5 -2.5t-61.5 -2.5q-25 0 -45 1.5t-37 3.5q4 -65 6 -129.5t2 -147.5v-136q0 -83 -2 -147.5t-6 -126.5q17 2 37 2h45h45t37 -2q-4 62 -6 126.5t-2 147.5v41h9z" />
    <glyph glyph-name="S" unicode="S" horiz-adv-x="500" 
d="M384 550h15q10 33 16.5 54.5t15.5 44.5q-29 23 -69.5 36t-94.5 13q-45 0 -85.5 -14t-71.5 -41t-49.5 -67t-18.5 -92q0 -57 22 -93.5t55 -61.5t72 -42.5t72 -36t55 -42.5t22 -62q0 -42 -28.5 -72t-88.5 -30q-30 0 -54 8.5t-41 23.5t-28 34.5t-15 41.5h-19q-5 -34 -12 -63
t-17 -64q22 -17 64.5 -28.5t96.5 -11.5q60 0 108.5 15.5t83.5 45t54 71t19 91.5q0 57 -22.5 93.5t-56.5 62t-73 43t-73 36.5t-56.5 42.5t-22.5 60.5q0 36 29 63t75 27q89 0 121 -86z" />
    <glyph glyph-name="T" unicode="T" 
d="M207 522v-250q0 -83 -2 -147.5t-6 -126.5q17 2 37 2h45h45t37 -2q-4 62 -6 126.5t-2 147.5v250v53q0 12 0.5 21t1.5 14q15 0 37 -1t46.5 -2.5t49.5 -4t45 -5.5q-2 11 -3.5 22t-1.5 22t1.5 22t3.5 22q-31 -1 -57.5 -2t-54.5 -1.5t-61.5 -1t-80.5 -0.5t-80.5 0.5t-62 1
t-56 1.5t-61.5 2q2 -11 3.5 -22t1.5 -22t-1.5 -22t-3.5 -22q22 3 48 5.5t51 4t47 2.5t37 1q2 -11 2.5 -35t0.5 -53z" />
    <glyph glyph-name="U" unicode="U" horiz-adv-x="778" 
d="M394 -15q145 0 220 75.5t75 249.5q0 65 1.5 123.5t3.5 107t4 85.5t4 59q-13 -2 -25 -3.5t-25 -1.5q-11 0 -24 1.5t-27 3.5q4 -69 6 -137.5t2 -137.5q0 -70 -4 -134.5t-21.5 -114.5t-51.5 -80t-94 -30q-49 0 -86 10t-62.5 40.5t-38.5 86.5t-13 147q0 86 2 169.5t12 180.5
q-20 -2 -41 -3.5t-41 -1.5t-41 1.5t-41 3.5q2 -25 3 -75t1 -131q0 -27 -0.5 -52t-0.5 -52t-0.5 -58.5t-0.5 -71.5q0 -71 23.5 -120.5t64.5 -81t96.5 -45t119.5 -13.5z" />
    <glyph glyph-name="V" unicode="V" horiz-adv-x="667" 
d="M377 183q-23 63 -47.5 128t-47.5 129.5t-44.5 126.5t-38.5 118q-22 -2 -44 -3.5t-44 -1.5t-44.5 1.5t-45.5 3.5q16 -38 38 -92t47 -116.5t52 -129.5t51.5 -131t46 -121t36.5 -97q20 2 44 2t44 -2q29 84 66 180t75 189t73 176t60 142q-25 -5 -44 -5t-44 5
q-39 -118 -88 -246.5t-101 -255.5z" />
    <glyph glyph-name="W" unicode="W" horiz-adv-x="1000" 
d="M496 486h2q45 -125 85.5 -245.5t72.5 -242.5q13 2 26 2h26q28 0 51 -2q16 53 37.5 120t44.5 137t46 139t43 127.5t35 101.5t22 62q-12 -2 -23.5 -3.5t-22.5 -1.5q-17 0 -42 5q-7 -30 -24 -89t-38 -130t-43.5 -147t-42.5 -139h-2q-9 33 -23 77t-30.5 93t-33 99t-31 95
t-25.5 82t-15 59q-13 -2 -25 -3.5t-25 -1.5t-25 1.5t-25 3.5q-11 -35 -31 -94.5t-44 -130t-49.5 -144t-47.5 -136.5h-2q-14 52 -30.5 113.5t-34 127t-34.5 133t-32 131.5q-20 -2 -40.5 -3.5t-40.5 -1.5t-41 1.5t-43 3.5q4 -10 17 -53.5t32 -105.5t41 -136.5t43 -147.5
t39 -138t29 -106q13 2 26 2h26q28 0 51 -2q16 50 38 114t45.5 130t46.5 129.5t41 114.5z" />
    <glyph glyph-name="X" unicode="X" horiz-adv-x="611" 
d="M240 313q-26 -39 -55.5 -83.5t-58.5 -87.5t-55 -81.5t-45 -62.5q14 2 26.5 2h24.5q26 0 49 -2q35 62 73 125.5t79 127.5q35 -64 67 -128t64 -125q22 2 43.5 2h43.5h43.5t44.5 -2q-15 26 -40.5 72t-55 99t-59.5 109t-55 104q26 37 55.5 81t58.5 86t54.5 78t42.5 58
q-14 -2 -26.5 -3.5t-24.5 -1.5q-13 0 -25 1.5t-26 3.5q-35 -61 -71.5 -122t-74.5 -122q-32 61 -63 122t-61 122q-23 -2 -44.5 -3.5t-44.5 -1.5t-45 1.5t-46 3.5q10 -18 34 -61t54 -96.5t62 -111t57 -103.5z" />
    <glyph glyph-name="Y" unicode="Y" horiz-adv-x="611" 
d="M353 385h-2q-11 17 -29 52t-39 78t-42.5 88t-38.5 82q-23 -2 -44.5 -3.5t-44.5 -1.5t-45 1.5t-45 3.5q12 -21 37.5 -68t56 -105t63 -119.5t57.5 -111.5q1 -23 1.5 -46.5t0.5 -46.5q0 -48 -5 -96t-7 -94q21 2 42.5 2h42.5h42.5t42.5 -2q-7 55 -8.5 105t-1.5 101
q0 25 1 49.5t1 48.5q24 47 53.5 102.5t58.5 108.5t54.5 98.5t42.5 73.5q-13 -2 -24.5 -3.5t-23.5 -1.5t-23.5 1.5t-22.5 3.5q-17 -37 -35 -77.5t-37 -80.5t-39 -76.5t-40 -65.5z" />
    <glyph glyph-name="Z" unicode="Z" horiz-adv-x="611" 
d="M12 12v-14q29 1 110 1.5t202 0.5h128.5t121.5 -2q-1 8 -3 17.5t-2 20.5t2 21t3 21q-27 -2 -55.5 -3.5t-68.5 -2.5t-94 -1.5t-132 -0.5v2q85 151 171 298t180 297v18q-42 -1 -74 -2t-60 -1.5t-54.5 -1t-57.5 -0.5q-35 0 -65.5 1t-62 1.5t-67 1.5t-81.5 1q2 -11 3.5 -21
t1.5 -21t-1.5 -21t-3.5 -21q75 7 155 8t158 1l1 -2q-41 -75 -87.5 -156t-93.5 -160t-92 -151t-82 -129z" />
    <glyph glyph-name="bracketleft" unicode="[" horiz-adv-x="333" 
d="M211 637l108 -6q-1 7 -2 13.5t-1 13.5t1 13.5t2 13.5q-32 -2 -64.5 -3.5t-65.5 -1.5q-22 0 -43 1.5t-42 3.5q3 -39 4 -109.5t1 -161.5v-125v-137v-93t-1 -79t-1.5 -62t-2.5 -42q26 2 52.5 3.5t52.5 1.5q28 0 56 -1.5t54 -3.5q-1 8 -2 14.5t-1 14.5q0 7 1 14l2 14
q-23 -2 -54.5 -4t-53.5 -2q-1 10 -2.5 42.5t-2.5 80.5t-1.5 106.5t-0.5 118.5q0 67 0.5 119t1.5 94.5t2.5 78.5t2.5 70z" />
    <glyph glyph-name="backslash" unicode="\" horiz-adv-x="520" 
d="M76 700l286 -717q10 1 20 1.5t21 0.5t21 -0.5t21 -1.5l-286 717q-10 -1 -20 -1.5t-21 -0.5t-21 0.5t-21 1.5z" />
    <glyph glyph-name="bracketright" unicode="]" horiz-adv-x="333" 
d="M14 631l108 6q1 -34 2.5 -70t2.5 -78.5t1.5 -94.5t0.5 -119q0 -60 -0.5 -118.5t-1.5 -106.5t-2.5 -80.5t-2.5 -42.5q-22 0 -53.5 2t-54.5 4l2 -14t1 -14q0 -8 -1 -14.5t-2 -14.5q26 2 54 3.5t56 1.5q26 0 52.5 -1.5t52.5 -3.5q-1 15 -2 42t-2 62t-1 79v93v137v125
q0 91 1 161.5t4 109.5q-21 -2 -42 -3.5t-43 -1.5q-33 0 -65.5 1.5t-64.5 3.5q1 -7 2 -13.5t1 -13.5t-1 -13.5t-2 -13.5z" />
    <glyph glyph-name="asciicircum" unicode="^" horiz-adv-x="606" 
d="M303 538l140 -286h100l-200 404h-80l-200 -404h100z" />
    <glyph glyph-name="underscore" unicode="_" horiz-adv-x="500" 
d="M0 -73v-50h500v50h-500z" />
    <glyph glyph-name="grave" unicode="`" horiz-adv-x="333" 
d="M193 559h55q-56 68 -88.5 106t-51.5 56t-29 22t-21 4q-24 0 -35.5 -14t-11.5 -31q0 -10 4 -19t22 -23.5t54.5 -38t101.5 -62.5z" />
    <glyph glyph-name="a" unicode="a" horiz-adv-x="500" 
d="M295 150q0 -49 -20.5 -74t-53.5 -25q-26 0 -41.5 19.5t-15.5 56.5q0 38 12.5 58t32 31.5t43 19t44.5 19.5q0 -17 -0.5 -39.5t-0.5 -65.5zM58 422l13 -60h7q7 11 20.5 20.5t30 17.5t34.5 12.5t35 4.5q45 0 70.5 -25.5t25.5 -61.5q0 -13 -3.5 -22t-15.5 -16.5t-36.5 -15
t-66.5 -17.5q-34 -8 -61 -19.5t-46.5 -28.5t-30 -41t-10.5 -57q0 -24 8 -47.5t25.5 -42t44.5 -28.5t65 -10q46 0 76.5 19t53.5 51q12 -34 35 -52t60 -18q23 0 43 6t49 18v24q-15 0 -26.5 2t-18.5 9t-10.5 20.5t-3.5 37.5q0 54 1.5 108.5t1.5 118.5q0 44 -13.5 75t-38 50.5
t-58 28.5t-73.5 9q-48 0 -96.5 -18t-90.5 -52z" />
    <glyph glyph-name="b" unicode="b" 
d="M195 234q0 54 6.5 91.5t19 61t30 33.5t38.5 10q86 0 86 -174q0 -122 -25.5 -175.5t-68.5 -53.5q-27 0 -43.5 16t-26 43.5t-13 65.5t-3.5 82zM61 406v-65q0 -98 -2 -180.5t-6 -166.5h24q22 14 43.5 30t42.5 28q21 -30 54 -48.5t81 -18.5q39 0 79 13t72.5 45t53 83.5
t20.5 126.5q0 50 -14 93.5t-39.5 75.5t-61 51t-78.5 19q-45 0 -80.5 -22t-52.5 -64h-2q0 98 2 180t6 166q-13 -2 -33 -3.5t-42 -1.5t-42 1.5t-33 3.5q4 -84 6 -166t2 -180z" />
    <glyph glyph-name="c" unicode="c" horiz-adv-x="500" 
d="M417 341h24q5 26 15.5 55t22.5 49q-36 21 -75.5 34t-96.5 13q-60 0 -109 -19.5t-83.5 -53.5t-53 -81t-18.5 -102q0 -46 13 -91.5t43.5 -81.5t80.5 -57t123 -21q46 0 79.5 11.5t55.5 28.5l10 30t12 29l-12 10q-14 -18 -43 -32.5t-60 -14.5q-73 0 -111 48.5t-38 139.5
q0 97 30 151.5t90 54.5q46 0 69.5 -27.5t31.5 -72.5z" />
    <glyph glyph-name="d" unicode="d" 
d="M181 227q0 57 8.5 95t21.5 60.5t29 31.5t32 9q39 0 64 -42.5t25 -135.5q0 -108 -26.5 -154.5t-67.5 -46.5q-17 0 -32.5 9.5t-27.5 31t-19 56.5t-7 86zM495 341v65q0 98 2 180t6 166q-13 -2 -33 -3.5t-42 -1.5t-42 1.5t-33 3.5q4 -85 6 -164.5t2 -169.5h-2
q-17 32 -52.5 53t-80.5 21q-40 0 -75.5 -19t-61.5 -52.5t-41 -79t-15 -99.5t11 -101t34 -82t59 -54.5t87 -19.5q58 0 91 24.5t52 69.5l2 -2q0 -3 -1 -15t-2.5 -26t-2.5 -25t-2 -13q10 2 28.5 2h38.5h42t33 -2q-4 81 -6 163t-2 180z" />
    <glyph glyph-name="e" unicode="e" horiz-adv-x="500" 
d="M181 237h287q1 3 1 12v21q0 106 -52.5 164t-151.5 58q-50 0 -92.5 -16t-73.5 -48t-48.5 -80t-17.5 -113q0 -66 19.5 -113.5t53 -78.5t77.5 -44.5t93 -13.5q57 0 92 11.5t60 30.5l22 56l-12 9q-54 -45 -123 -45q-34 0 -59.5 14.5t-42 40t-24.5 60.5t-8 75zM335 282h-154
q1 29 5.5 58.5t13.5 53t24 38.5t37 15q39 0 55.5 -45t18.5 -120z" />
    <glyph glyph-name="f" unicode="f" horiz-adv-x="315" 
d="M316 474l-94 -2q-20 35 -33.5 71t-13.5 59q0 24 15.5 33.5t44.5 9.5q24 0 50 -9t46 -20l12 4v33q0 26 0.5 53.5t3.5 43.5q-25 5 -42 5q-54 0 -91 -21.5t-61.5 -59.5t-39.5 -90t-25 -113l-70 3q3 -15 3 -27q0 -13 -3 -25l70 1v-82q0 -98 -2 -180t-6 -163q13 2 33 2h42h42
t33 -2q-4 81 -6 163t-2 180v83l94 -2q-1 6 -2 12.5t-1 12.5q0 7 1 13t2 14z" />
    <glyph glyph-name="g" unicode="g" horiz-adv-x="500" 
d="M244 451q27 0 45 -27.5t18 -95.5q0 -69 -16 -98t-49 -29q-12 0 -23.5 6t-21 20t-15.5 36.5t-6 55.5q0 132 68 132zM396 443l88 -4q-1 6 -1.5 12t-0.5 12t0.5 12t1.5 12q-27 0 -54 -0.5t-52 -0.5q-16 0 -29.5 0.5t-26.5 1.5q-18 1 -37 2.5t-37 1.5q-47 0 -86 -11
t-67 -31.5t-43.5 -50.5t-15.5 -68q0 -64 34 -104q33 -39 94 -54v-2q-42 -11 -67.5 -42t-25.5 -64q0 -28 15.5 -46.5t41.5 -27.5v-2q-45 -17 -71.5 -46.5t-26.5 -77.5q0 -60 52.5 -96.5t146.5 -36.5q44 0 91 11t85.5 36.5t63 66t24.5 100.5q0 67 -39.5 97.5t-123.5 31.5
l-74 1q-40 1 -58.5 15t-18.5 38q0 14 8.5 25t20.5 11q13 0 23.5 -0.5t21.5 -0.5q44 0 79.5 12t61 34t39.5 52.5t14 67.5q0 38 -14.5 65.5t-39.5 45.5zM377 -108q0 -24 -8.5 -45.5t-25 -38t-39.5 -26t-52 -9.5q-27 0 -50.5 7.5t-41.5 21.5t-28.5 35.5t-10.5 50.5
q0 35 13.5 58t25.5 29q20 10 72 10q34 0 61 -3.5t45.5 -13.5t28.5 -28.5t10 -47.5z" />
    <glyph glyph-name="h" unicode="h" 
d="M61 406v-65q0 -98 -2 -180t-6 -163q13 2 33 2h42h42t33 -2q-2 24 -3.5 56.5t-2.5 64t-1.5 58t-0.5 40.5v40q0 69 21 108t66 39q39 0 60.5 -29.5t21.5 -92.5q0 -91 -2 -161.5t-9 -122.5q13 2 33 2h42h42t33 -2q-2 35 -3.5 72.5t-1.5 69.5q0 39 2 78t2 90q0 97 -40.5 140.5
t-115.5 43.5q-48 0 -85.5 -23t-63.5 -65l-2 2q0 98 2 180t6 166q-13 -2 -33 -3.5t-42 -1.5t-42 1.5t-33 3.5q4 -84 6 -166t2 -180z" />
    <glyph glyph-name="i" unicode="i" horiz-adv-x="278" 
d="M60 668q0 -33 23 -56t56 -23t56 23t23 56t-23 56t-56 23t-56 -23t-23 -56zM72 257v-40q0 -61 -1.5 -115t-6.5 -104q14 2 33 2h42h42.5t32.5 -2q-5 50 -6.5 104t-1.5 115v40q0 61 1.5 114.5t6.5 107.5q-28 -5 -75 -5q-23 0 -42 1.5t-33 3.5q5 -54 6.5 -107.5t1.5 -114.5z
" />
    <glyph glyph-name="j" unicode="j" horiz-adv-x="278" 
d="M60 668q0 -33 23 -56t56 -23t56 23t23 56t-23 56t-56 23t-56 -23t-23 -56zM-3 -232l10 -36q48 7 85 22t62.5 41t38.5 65t13 95v302q0 61 1.5 114.5t6.5 107.5q-28 -5 -75 -5q-23 0 -42 1.5t-33 3.5q5 -54 6.5 -107.5t1.5 -114.5v-360q0 -54 -17 -85t-58 -44z" />
    <glyph glyph-name="k" unicode="k" horiz-adv-x="500" 
d="M61 406v-65q0 -98 -2 -180t-6 -163q18 2 36 2h36h36t36 -2q-2 6 -3.5 23t-2 36.5t-1 38.5t-0.5 32v56q0 31 1.5 37t5.5 6t15 -15t25 -38.5t29.5 -51.5t30 -53.5t26 -45.5t16.5 -25q19 2 37.5 2h38.5h39t40 -2q-4 7 -18 30.5t-32.5 55t-39.5 66t-40 65t-32.5 52.5
t-17.5 28q11 12 35 37t51 52.5t52.5 53.5t38.5 41q-19 -2 -32 -3.5t-24 -1.5q-12 0 -23.5 1.5t-23.5 3.5q-39 -50 -71.5 -90.5t-57 -69.5t-40 -44.5t-19.5 -15.5t-4.5 4t-0.5 18q0 96 0.5 165.5t1.5 123.5t2.5 97t3.5 85q-13 -2 -33 -3.5t-42 -1.5t-42 1.5t-33 3.5
q4 -84 6 -166t2 -180z" />
    <glyph glyph-name="l" unicode="l" horiz-adv-x="278" 
d="M72 406v-65q0 -98 -2 -180t-6 -163q13 2 33 2h42h42t33 -2q-4 81 -6 163t-2 180v65q0 98 2 180t6 166q-13 -2 -33 -3.5t-42 -1.5t-42 1.5t-33 3.5q4 -84 6 -166t2 -180z" />
    <glyph glyph-name="m" unicode="m" horiz-adv-x="833" 
d="M190 404l4 75q-20 -2 -37.5 -3.5t-35.5 -1.5t-35.5 1.5t-35.5 3.5q5 -54 6.5 -107.5t1.5 -114.5v-40q0 -61 -1.5 -115t-6.5 -104q14 2 33 2h42h42.5t32.5 -2q-5 50 -6.5 104t-1.5 115v40q0 69 21 108t66 39q42 0 57 -33t15 -93v-61q0 -61 -1.5 -115t-6.5 -104q14 2 33 2
h42h42.5t32.5 -2q-5 50 -6.5 104t-1.5 115v72q0 18 3 38t12 37.5t24.5 28.5t39.5 11q38 0 59 -29.5t21 -92.5q0 -91 -2 -161.5t-9 -122.5q13 2 33 2h42h42t33 -2q-2 35 -3.5 72.5t-1.5 69.5q0 39 2 78t2 90q0 97 -40.5 140.5t-115.5 43.5q-45 0 -85 -24.5t-70 -70.5
q-18 46 -50.5 70.5t-77.5 24.5q-48 0 -85.5 -23t-65.5 -65h-2z" />
    <glyph glyph-name="n" unicode="n" 
d="M193 404l4 75q-20 -2 -37.5 -3.5t-35.5 -1.5t-35.5 1.5t-35.5 3.5q5 -54 6.5 -107.5t1.5 -114.5v-40q0 -61 -1.5 -115t-6.5 -104q14 2 33 2h42h42.5t32.5 -2q-5 50 -6.5 104t-1.5 115v40q0 69 21 108t66 39q39 0 60.5 -29.5t21.5 -92.5q0 -91 -2 -161.5t-9 -122.5
q13 2 33 2h42h42t33 -2q-2 35 -3.5 72.5t-1.5 69.5q0 39 2 78t2 90q0 97 -40.5 140.5t-115.5 43.5q-48 0 -85.5 -23t-65.5 -65h-2z" />
    <glyph glyph-name="o" unicode="o" 
d="M375 262q0 -235 -96 -235q-28 0 -46.5 15t-30 41.5t-16.5 62.5t-5 78q0 115 26.5 169t72.5 54q51 0 73 -48.5t22 -136.5zM33 225q0 -67 21.5 -113t56.5 -74.5t78.5 -40.5t88.5 -12q54 0 99 17t77.5 51.5t50.5 83.5t18 110q0 113 -64 179t-181 66q-47 0 -91.5 -16.5
t-78.5 -50t-54.5 -83.5t-20.5 -117z" />
    <glyph glyph-name="p" unicode="p" 
d="M61 133v-55q0 -49 -0.5 -92t-1.5 -85t-2.5 -83t-3.5 -83q13 2 33 3.5t42 1.5t42 -1.5t33 -3.5q-2 13 -3.5 39t-2.5 59t-1.5 69.5t-0.5 71.5v81h2q18 -36 51 -53t78 -17q37 0 72.5 13t63 44.5t44.5 81.5t17 121q0 65 -16 112t-43 77t-62 44t-73 14q-54 0 -91 -28.5
t-51 -70.5h-2q0 22 2.5 45.5t4.5 40.5q-17 -2 -34.5 -3.5t-34.5 -1.5t-35 1.5t-35 3.5q4 -84 6 -166t2 -180zM375 242q0 -100 -25 -147t-68 -47q-45 0 -68.5 43.5t-23.5 134.5q0 56 8 95t21.5 63t30.5 35t36 11q40 0 64.5 -44.5t24.5 -143.5z" />
    <glyph glyph-name="q" unicode="q" 
d="M366 229q0 -93 -25.5 -135.5t-66.5 -42.5q-16 0 -33 9t-30 31.5t-21.5 60.5t-8.5 95q0 51 7 86t19 56.5t28 31t34 9.5q43 0 70 -46.5t27 -154.5zM498 68v65q0 98 2 180t6 166q-13 -2 -33 -3.5t-42 -1.5q-20 0 -38.5 1.5t-28.5 3.5q1 -3 2.5 -15t2.5 -26t2 -26t1 -15
l-2 -2q-19 45 -52 71t-93 26q-51 0 -87.5 -20.5t-59.5 -56t-34 -83t-11 -100.5q0 -54 15 -99.5t41 -79t61.5 -51t76.5 -17.5q45 0 81.5 19.5t53.5 51.5h2q0 -88 -2 -165.5t-6 -155.5q13 2 33 3.5t42 1.5t42 -1.5t33 -3.5q-4 78 -6 157.5t-2 175.5z" />
    <glyph glyph-name="r" unicode="r" horiz-adv-x="389" 
d="M195 357l3 122q-17 -2 -34.5 -3.5t-34.5 -1.5t-34.5 1.5t-34.5 3.5q5 -54 6.5 -107.5t1.5 -114.5v-40q0 -61 -1.5 -115t-6.5 -104q14 2 33 2h42h42.5t32.5 -2q-5 50 -6.5 104t-1.5 115v40q0 40 26 69.5t71 29.5q16 0 28.5 -4t22.5 -10l9 8q-1 8 -1 17v17v32q0 23 1.5 40
t4.5 32q-4 0 -7.5 0.5t-8.5 0.5q-51 0 -88 -32.5t-63 -101.5z" />
    <glyph glyph-name="s" unicode="s" horiz-adv-x="389" 
d="M69 121h-25q-3 -48 -15 -96q21 -14 57 -27t81 -13q38 0 72.5 9t61.5 29.5t43 52t16 75.5t-17.5 72t-43.5 45.5t-57 28.5t-57 22t-43.5 25.5t-17.5 38.5q0 26 20.5 42t50.5 16q24 0 41 -8.5t29 -21.5t19 -27.5t10 -26.5h28q3 22 9 45t15 43q-34 23 -66.5 35t-74.5 12
q-31 0 -62.5 -9.5t-56.5 -29t-40.5 -50t-15.5 -72.5q0 -44 17 -72t42.5 -46.5t55.5 -30.5t55.5 -23.5t42.5 -25.5t17 -37q0 -21 -19 -39t-54 -18q-26 0 -45.5 7t-33.5 18.5t-23.5 26t-15.5 30.5z" />
    <glyph glyph-name="t" unicode="t" horiz-adv-x="333" 
d="M316 474l-88 -2q0 22 0.5 46.5t2 48t3 45t3.5 37.5l-10 7q-34 -17 -68 -32.5t-69 -29.5q2 -38 3 -65t1 -58l-70 3q3 -15 3 -27q0 -13 -3 -25l70 1q0 -32 -1 -69.5t-2.5 -76t-2.5 -75t-1 -65.5q0 -152 127 -152q29 0 59 7t50 16v41q-9 -5 -18 -7.5t-28 -2.5q-17 0 -28 6
t-17 23t-8.5 49t-2.5 84q0 20 0.5 49t1 60t2 61t3.5 53l88 -2q-3 12 -3 25q0 12 3 27z" />
    <glyph glyph-name="u" unicode="u" 
d="M363 70l-4 -72q20 2 37.5 2h35.5h35.5t35.5 -2q-5 50 -6.5 104t-1.5 115v40q0 61 1.5 114.5t6.5 107.5q-14 -2 -33 -3.5t-42 -1.5q-47 0 -75 5q5 -54 6.5 -107.5t1.5 -114.5v-40q0 -69 -21 -108t-66 -39q-39 0 -60.5 29.5t-21.5 92.5q0 91 2 162t9 125q-13 -2 -33 -3.5
t-42 -1.5t-42 1.5t-33 3.5q2 -38 3.5 -75.5t1.5 -69.5q0 -39 -2 -78t-2 -90q0 -97 40.5 -139t115.5 -42q48 0 85.5 21.5t65.5 63.5h2z" />
    <glyph glyph-name="v" unicode="v" horiz-adv-x="500" 
d="M282 129h-2q-29 88 -56.5 175t-54.5 175q-19 -2 -37.5 -3.5t-37.5 -1.5t-38.5 1.5t-40.5 3.5q14 -37 35 -95t45 -124.5t48.5 -135.5t44.5 -126q14 2 27 2h27h27t27 -2q23 75 49.5 145.5t52 132t48.5 113t39 90.5q-12 -2 -22 -3.5t-20 -1.5t-20 1.5t-21 3.5
q-29 -88 -58.5 -175t-61.5 -175z" />
    <glyph glyph-name="w" unicode="w" horiz-adv-x="778" 
d="M582 133h-2q-27 88 -52 173t-49 173q-14 -2 -28 -3.5t-28 -1.5t-28 1.5t-28 3.5q-24 -88 -48 -173t-53 -173h-2q-23 76 -49 167.5t-50 178.5q-18 -2 -36.5 -3.5t-36.5 -1.5q-19 0 -37.5 1.5t-40.5 3.5q4 -10 14 -39t23.5 -69.5t29.5 -89.5t32 -99t30.5 -98.5t25.5 -85.5
q15 2 30 2h29h28.5t28.5 -2q23 80 48.5 161t51.5 165h2q10 -35 22 -75.5t25 -83t26 -86t25 -81.5q14 2 28 2h28h27.5t27.5 -2q12 37 27.5 84t31.5 96t32.5 97.5t31 89.5t26.5 71t19 43q-13 -2 -22.5 -3.5t-19.5 -1.5q-17 0 -39 5q-46 -172 -101 -346z" />
    <glyph glyph-name="x" unicode="x" horiz-adv-x="500" 
d="M218 165l92 -167q20 2 41 2h41h41t41 -2q-42 67 -83 134.5t-81 136.5q19 26 43.5 58t48 62t43 54.5t28.5 35.5q-14 -2 -25 -3.5t-22 -1.5t-21 1.5t-21 3.5q-24 -42 -50.5 -79.5t-53.5 -79.5q-23 40 -44 80t-42 79q-20 -2 -40.5 -3.5t-40.5 -1.5t-41 1.5t-45 3.5
q10 -15 29.5 -46t42 -69t46 -77.5t41.5 -72.5q-18 -27 -42.5 -61t-48 -66.5t-43 -57.5t-26.5 -31q14 2 24.5 2h20.5q21 0 41 -2q24 40 50.5 82.5t55.5 84.5z" />
    <glyph glyph-name="y" unicode="y" horiz-adv-x="500" 
d="M287 165q-32 79 -61.5 157t-58.5 157q-19 -2 -37 -3.5t-37 -1.5t-37.5 1.5t-37.5 3.5q12 -30 35.5 -87t52 -126t58 -141t53.5 -129q-30 -66 -62 -130.5t-65 -130.5q11 2 21 3.5t21 1.5t21 -1.5t21 -3.5q23 62 53.5 138t63 153.5t64.5 153.5t58.5 138.5t45 105t23.5 55.5
q-12 -2 -22 -3.5t-20 -1.5t-19.5 1.5t-20.5 3.5q-13 -41 -25.5 -78t-26 -74t-28.5 -76.5t-33 -85.5z" />
    <glyph glyph-name="z" unicode="z" horiz-adv-x="500" 
d="M30 36v-38q7 0 21 0.5t38.5 1t62 0.5h92.5h76h43h35.5t32 -0.5t31.5 -1.5q-3 13 -3 32q0 16 3 34q-36 -4 -64 -6t-51 -3.5t-43 -2t-41 -0.5h-58q61 99 128 194.5t137 192.5v40q-18 -2 -40.5 -3.5t-50.5 -1.5h-111h-109q-25 0 -49 1.5t-49 3.5q4 -15 4 -34t-4 -35
q43 4 74 6.5t56.5 3.5t49.5 1.5t53 0.5q-66 -99 -130.5 -194t-133.5 -192z" />
    <glyph glyph-name="braceleft" unicode="{" horiz-adv-x="333" 
d="M49 306v-54q34 -6 59 -33.5t25 -75.5v-143q0 -59 34 -89t97 -30h59v75h-59q-43 0 -43 44v134q0 54 -19.5 92.5t-72.5 51.5v2q53 13 72.5 51.5t19.5 92.5v135q0 46 43 46h59v75h-59q-63 0 -97 -30t-34 -91v-144q0 -48 -25 -75.5t-59 -33.5z" />
    <glyph glyph-name="bar" unicode="|" horiz-adv-x="606" 
d="M263 750v-998h80v998h-80z" />
    <glyph glyph-name="braceright" unicode="}" horiz-adv-x="333" 
d="M10 680v-75h59q43 0 43 -46v-135q0 -54 19.5 -92.5t72.5 -51.5v-2q-53 -13 -72.5 -51.5t-19.5 -92.5v-134q0 -44 -43 -44h-59v-75h59q63 0 97 30t34 89v143q0 48 25 75.5t59 33.5v54q-34 6 -59 33.5t-25 75.5v144q0 61 -34 91t-97 30h-59z" />
    <glyph glyph-name="asciitilde" unicode="~" horiz-adv-x="606" 
d="M69 244l42 -74q21 37 41.5 55.5t46.5 18.5q16 0 41.5 -11t55 -24t60 -24t56.5 -11q45 0 75 24t50 64l-42 74q-21 -37 -41.5 -55.5t-46.5 -18.5q-16 0 -41.5 11t-55 24t-59.5 24t-57 11q-45 0 -75 -24t-50 -64z" />
    <glyph glyph-name="nonbreakingspace" unicode="&#xa0;" horiz-adv-x="278" 
 />
    <glyph glyph-name="exclamdown" unicode="&#xa1;" horiz-adv-x="333" 
d="M84 410q0 -34 24 -58t58 -24t58 24t24 58t-24 58t-58 24t-58 -24t-24 -58zM180 259h-28q-24 -118 -38 -189t-21 -113t-9 -62.5t-2 -35.5q0 -36 23 -58t61 -22t61 22t23 58q0 15 -2 35.5t-9 62.5t-21 113t-38 189z" />
    <glyph glyph-name="cent" unicode="&#xa2;" 
d="M368 47v394q37 -5 57 -33t27 -67h24q5 26 15.5 55t22.5 49q-13 9 -31 17.5t-38 15t-40 10.5t-36 4q0 37 2 65t4 39q-8 0 -16.5 -1t-16.5 -1t-17 1t-17 1q2 -11 4 -39t3 -65q-54 -5 -98 -26t-75 -54.5t-47.5 -78.5t-16.5 -97q0 -44 12 -87.5t40 -79t73.5 -58t111.5 -26.5
q0 -42 -2.5 -73t-4.5 -43q8 0 17 1t17 1t16.5 -1t16.5 -1q-2 12 -4.5 43.5t-2.5 74.5q37 3 63 14.5t42 23.5l10 30t12 29l-12 10q-14 -19 -43 -33.5t-60 -14.5q-9 0 -12 1zM315 435v-375q-84 38 -84 175q0 81 21 134t63 66z" />
    <glyph glyph-name="sterling" unicode="&#xa3;" 
d="M142 358l-79 4q4 -15 4 -32q0 -18 -4 -33l84 2q1 -9 2.5 -25t1.5 -46q0 -36 -9 -59t-24.5 -36.5t-36 -18.5t-44.5 -5q2 -14 3.5 -28.5t1.5 -28.5q0 -28 -5 -54q36 2 72.5 2h72.5h166t174 -2q-2 14 -3.5 29.5t-1.5 32.5t1.5 32.5t3.5 32.5q-87 -6 -171.5 -7t-172.5 -1v2
q16 8 35.5 29t37 47.5t29 54.5t11.5 50h41q31 0 62.5 -0.5t73.5 -2.5q-1 8 -1.5 16.5t-0.5 16.5t0.5 16.5t1.5 16.5q-53 -5 -93 -5.5t-84 -0.5q-1 32 -3.5 63.5t-2.5 63.5q0 69 17.5 106t67.5 37q36 0 59 -25.5t26 -79.5l12 -2q4 11 11 25.5t15 29t16 26.5t14 19
q-27 23 -68 37.5t-89 14.5q-114 0 -171.5 -62.5t-57.5 -171.5q0 -23 1.5 -41t3.5 -39z" />
    <glyph glyph-name="currency" unicode="&#xa4;" 
d="M412 328q0 -60 -37 -97t-97 -37t-97 37t-37 97t37 97t97 37t97 -37t37 -97zM459 576l-53 -53q-28 18 -60 28.5t-68 10.5q-35 0 -67.5 -10.5t-60.5 -28.5l-53 53l-67 -67l53 -53q-18 -29 -28.5 -61t-10.5 -67q0 -36 10.5 -67.5t28.5 -60.5l-53 -53l67 -67l53 53
q28 -18 60.5 -28.5t67.5 -10.5q36 0 68 10.5t60 28.5l53 -53l67 67l-53 53q18 29 28.5 60.5t10.5 67.5q0 35 -10.5 67t-28.5 61l53 53z" />
    <glyph glyph-name="yen" unicode="&#xa5;" 
d="M195 326v-93q-66 0 -107 0.5t-75 2.5q1 -7 1.5 -12.5t0.5 -10.5q0 -6 -0.5 -11.5t-1.5 -10.5l182 2q0 -75 -0.5 -124.5t-4.5 -70.5q20 2 39.5 2h39.5h39.5t39.5 -2q-4 21 -4.5 70.5t-0.5 124.5l186 -2q-1 5 -1.5 10.5t-0.5 11.5q0 5 0.5 10.5t1.5 12.5q-27 -2 -56.5 -2.5
t-70.5 -0.5h-59v93l186 -2q-1 5 -1.5 10.5t-0.5 11.5q0 5 0.5 10.5t1.5 12.5q-37 -2 -77 -2.5t-97 -0.5q23 39 49.5 83t53 87.5t52 82t46.5 66.5q-13 -2 -25 -3.5t-24 -1.5q-11 0 -22 1.5t-23 3.5q-32 -78 -68.5 -156t-78.5 -163q-14 31 -32.5 70.5t-37 82t-36.5 85.5
t-32 81q-23 -2 -46.5 -3.5t-46.5 -1.5q-21 0 -42.5 1.5t-41.5 3.5q46 -84 88.5 -160.5t86.5 -158.5q-51 0 -89.5 0.5t-72.5 2.5q1 -7 1.5 -12.5t0.5 -10.5q0 -6 -0.5 -11.5t-1.5 -10.5z" />
    <glyph glyph-name="brokenbar" unicode="&#xa6;" horiz-adv-x="606" 
d="M263 675v-350h80v350h-80zM263 175v-348h80v348h-80z" />
    <glyph glyph-name="section" unicode="&#xa7;" 
d="M414 239q0 -30 -26 -58q-39 24 -82 42t-79.5 35.5t-60.5 38t-24 49.5q0 40 32 63q37 -26 79 -45t78 -37t59.5 -38.5t23.5 -49.5zM406 560h13q11 21 21.5 42l21.5 43q-38 28 -80 40.5t-90 12.5q-40 0 -75 -12.5t-60.5 -34.5t-40.5 -52t-15 -66q0 -34 13 -59t30 -41
q-37 -23 -59.5 -61.5t-22.5 -84.5q0 -44 22.5 -74t56 -51.5t73 -37t73 -32t56 -37t22.5 -50.5q0 -12 -7 -27t-20 -27.5t-32.5 -20.5t-44.5 -8q-27 0 -49.5 9t-40.5 24t-32 33t-23 38h-18q-3 -26 -7 -51.5t-11 -51.5q35 -23 77.5 -37.5t102.5 -14.5q43 0 82 13.5t69 37
t47.5 55t17.5 68.5q0 34 -14.5 64t-43.5 50q42 35 59 69t17 69q0 43 -21 72.5t-53 51t-68.5 37t-68.5 32t-53 36t-21 47.5q0 30 21.5 52t55.5 22q54 0 83 -25.5t37 -61.5z" />
    <glyph glyph-name="dieresis" unicode="&#xa8;" horiz-adv-x="333" 
d="M207 633q0 -27 19 -46t46 -19t46 19t19 46t-19 46t-46 19t-46 -19t-19 -46zM-1 633q0 -27 17.5 -46t44.5 -19t46 19t19 46t-19 46t-46 19t-44.5 -19t-17.5 -46z" />
    <glyph glyph-name="copyright" unicode="&#xa9;" horiz-adv-x="750" 
d="M692 340q0 -66 -25 -123.5t-68 -100.5t-100.5 -68t-123.5 -25t-123.5 25t-100.5 68t-68 100.5t-25 123.5t25 123.5t68 100.5t100.5 68t123.5 25t123.5 -25t100.5 -68t68 -100.5t25 -123.5zM521 465h8q3 16 6.5 31.5t8.5 31.5q-34 16 -65 23t-65 7q-52 0 -95.5 -15
t-74.5 -43.5t-48.5 -68.5t-17.5 -91q0 -57 18.5 -96.5t49 -64t71.5 -36t86 -11.5q38 0 65 6.5t53 17.5q2 13 6 28.5t9 23.5l-7 4q-21 -19 -50 -31t-61 -12q-29 0 -54.5 11t-44.5 32t-30 52.5t-11 72.5q0 45 11.5 79.5t30.5 58t44 35t52 11.5q33 0 59.5 -15t45.5 -41zM17 340
q0 -75 28 -140t76.5 -113t114 -75t139.5 -27t139.5 27t114 75t76.5 113t28 140q0 74 -28 139.5t-76.5 114t-114 76.5t-139.5 28t-139.5 -28t-114 -76.5t-76.5 -114t-28 -139.5z" />
    <glyph glyph-name="ordfeminine" unicode="&#xaa;" horiz-adv-x="333" 
d="M189 523v-53q0 -59 -43 -59q-17 0 -24.5 10.5t-7.5 36.5q0 18 7 28.5t18 16.5t24.5 10t25.5 10zM42 630l8 -39h5q10 13 32.5 23t45.5 10q29 0 42.5 -14.5t13.5 -32.5q0 -15 -13 -22.5t-32.5 -13t-42 -11t-42 -15t-32.5 -26t-13 -44.5q0 -15 6 -29t18.5 -25t31 -18
t43.5 -7q29 0 49 12.5t35 31.5q8 -20 23 -32t39 -12q15 0 28 3.5t32 12.5v16q-20 0 -29.5 6t-9.5 34q0 32 1.5 66t1.5 82q0 42 -34.5 64t-85.5 22q-31 0 -63 -11t-58 -31z" />
    <glyph glyph-name="guillemotleft" unicode="&#xab;" horiz-adv-x="500" 
d="M310 269q26 38 54.5 76t57.5 76q-32 17 -65 44q-30 -51 -62.5 -99t-64.5 -97q33 -51 65 -99.5t62 -99.5q33 27 66 45q-30 38 -58.5 77t-54.5 77zM162 269q26 38 54.5 76t57.5 76q-32 17 -65 44q-30 -51 -62.5 -99t-64.5 -97q33 -51 65 -99.5t62 -99.5q33 27 66 45
q-30 38 -58.5 77t-54.5 77z" />
    <glyph glyph-name="logicalnot" unicode="&#xac;" horiz-adv-x="606" 
d="M50 414v-94h412v-213h94v307h-506z" />
    <glyph glyph-name="registered" unicode="&#xae;" horiz-adv-x="750" 
d="M692 340q0 -66 -25 -123.5t-68 -100.5t-100.5 -68t-123.5 -25t-123.5 25t-100.5 68t-68 100.5t-25 123.5t25 123.5t68 100.5t100.5 68t123.5 25t123.5 -25t100.5 -68t68 -100.5t25 -123.5zM17 340q0 -75 28 -140t76.5 -113t114 -75t139.5 -27t139.5 27t114 75t76.5 113
t28 140q0 74 -28 139.5t-76.5 114t-114 76.5t-139.5 28t-139.5 -28t-114 -76.5t-76.5 -114t-28 -139.5zM426 445q0 -33 -11 -51.5t-26.5 -26.5t-31.5 -9.5t-26 -1.5v73q0 19 0.5 42t1.5 50h31q23 0 42.5 -19t19.5 -57zM551 142l-128 203q40 6 68.5 35t28.5 72q0 45 -31.5 73
t-85.5 28q-29 0 -49 -1t-34 -1q-19 0 -38.5 0.5t-39.5 1.5q1 -9 2 -22.5t2 -34.5t1.5 -52.5t0.5 -77.5q0 -56 -1 -96t-2 -66.5t-2 -41t-1 -19.5l24 2t23 1q12 0 24 -1t23 -2q-1 8 -2 27.5t-2 44.5t-1.5 51.5t-0.5 48.5q0 11 0.5 13.5t3.5 2.5q2 0 5 -3t13 -21t31 -56.5
t60 -108.5q14 1 27 2t27 1t27 -1t27 -2z" />
    <glyph glyph-name="macron" unicode="&#xaf;" horiz-adv-x="333" 
d="M20 667v-69h293v69h-293z" />
    <glyph glyph-name="degree" unicode="&#xb0;" horiz-adv-x="400" 
d="M281 529q0 -34 -23.5 -57.5t-57.5 -23.5t-57.5 23.5t-23.5 57.5t23.5 57.5t57.5 23.5t57.5 -23.5t23.5 -57.5zM57 529q0 -30 11 -56t30.5 -45.5t45.5 -30.5t56 -11t56 11t45.5 30.5t30.5 45.5t11 56t-11 56t-30.5 45.5t-45.5 30.5t-56 11t-56 -11t-45.5 -30.5
t-30.5 -45.5t-11 -56z" />
    <glyph glyph-name="plusminus" unicode="&#xb1;" horiz-adv-x="606" 
d="M50 82v-82h506v82h-506zM262 506v-149h-212v-82h212v-149h82v149h212v82h-212v149h-82z" />
    <glyph glyph-name="twosuperior" unicode="&#xb2;" horiz-adv-x="333" 
d="M1 294v-28l70 2t70 1q37 0 73 -1t73 -2q-2 11 -3.5 21t-1.5 21t1.5 20.5t3.5 20.5q-48 -2 -92.5 -2.5t-87.5 -0.5l-1 2q40 25 73 53t57 55.5t37.5 54t13.5 47.5q0 25 -8 46t-26 36t-47 23.5t-71 8.5q-57 0 -90 -22t-45 -55q13 -9 25.5 -18.5t25.5 -20.5l8 2q0 11 3 25
t9.5 27t18 21.5t29.5 8.5q22 0 41 -17t19 -65q0 -53 -40.5 -116.5t-137.5 -147.5z" />
    <glyph glyph-name="threesuperior" unicode="&#xb3;" horiz-adv-x="333" 
d="M86 492v-32q8 0 15 1t15 1q32 0 51 -25t19 -64q0 -37 -20.5 -61.5t-49.5 -24.5q-31 0 -46.5 22t-19.5 49h-12q-9 -13 -19.5 -25.5t-18.5 -26.5q13 -19 42.5 -33t83.5 -14q32 0 62 8.5t53.5 24t38 38t14.5 50.5q0 52 -28.5 72.5t-82.5 27.5v5q45 14 68.5 36t23.5 57
q0 20 -7 37t-23.5 29.5t-43 20t-65.5 7.5q-54 0 -82.5 -15.5t-45.5 -43.5q11 -10 22.5 -20t20.5 -20h12q4 31 16.5 51t41.5 20q22 0 38 -16t16 -55q0 -83 -72 -83q-5 0 -8.5 0.5t-8.5 1.5z" />
    <glyph glyph-name="acute" unicode="&#xb4;" horiz-adv-x="333" 
d="M85 559h55q65 39 101.5 62.5t54.5 38t22 23.5t4 19q0 17 -11.5 31t-35.5 14q-11 0 -21 -4t-29 -22t-51.5 -56t-88.5 -106z" />
    <glyph glyph-name="mu" unicode="&#xb5;" 
d="M363 70l-4 -72q20 2 37.5 2h35.5h35.5t35.5 -2q-5 50 -6.5 104t-1.5 115v40q0 61 1.5 114.5t6.5 107.5q-14 -2 -33 -3.5t-42 -1.5q-47 0 -75 5q5 -54 6.5 -107.5t1.5 -114.5v-40q0 -69 -21 -108t-66 -39q-39 0 -60.5 29.5t-21.5 92.5q0 91 2 162t9 125q-13 -2 -33 -3.5
t-42 -1.5t-42 1.5t-33 3.5q4 -84 6 -166t2 -180v-55q0 -49 -0.5 -92t-1.5 -85t-2.5 -83t-3.5 -83q13 2 33 3.5t42 1.5t42 -1.5t33 -3.5q-3 18 -5 56t-2 81q0 28 -0.5 54t-0.5 47v27l19 -9.5t28 -5.5q14 0 27.5 3.5t27.5 12t30 25.5t34 44h2z" />
    <glyph glyph-name="paragraph" unicode="&#xb6;" horiz-adv-x="700" 
d="M476 643v-759h42v760l66 8v28h-284q-77 0 -125 -48t-48 -135q0 -43 14.5 -80.5t45 -65t77.5 -43.5t111 -16v-408h42v751z" />
    <glyph glyph-name="periodcentered" unicode="&#xb7;" horiz-adv-x="278" 
d="M69 300q0 -29 20.5 -49.5t49.5 -20.5t49.5 20.5t20.5 49.5t-20.5 49.5t-49.5 20.5t-49.5 -20.5t-20.5 -49.5z" />
    <glyph glyph-name="cedilla" unicode="&#xb8;" horiz-adv-x="333" 
d="M68 -90l11 -8q9 4 28 4q46 0 46 -37q0 -20 -15.5 -30.5t-42.5 -10.5q-19 0 -33.5 4.5t-25.5 9.5l-16 -37q4 -2 14.5 -5t23 -6t26 -5t24.5 -2q64 0 101.5 22.5t37.5 64.5q0 31 -21 52t-69 21q-18 0 -32 -5l28 61h-42z" />
    <glyph glyph-name="onesuperior" unicode="&#xb9;" horiz-adv-x="333" 
d="M118 596l4 -3v-161q0 -51 -2.5 -96.5t-4.5 -69.5q16 1 29 2t26 1t26 -1t30 -2q-2 47 -3 80t-1 65v45v37q0 45 2 94t5 85l-18 5q-51 -24 -95 -42t-92 -34v-5q14 -15 27 -33q18 7 35 15.5t32 17.5z" />
    <glyph glyph-name="ordmasculine" unicode="&#xba;" horiz-adv-x="343" 
d="M231 534q0 -136 -60 -136q-33 0 -46 32t-13 81q0 67 16.5 98t42.5 31q31 0 45.5 -27.5t14.5 -78.5zM12 512q0 -40 14 -67.5t36.5 -45t51.5 -25.5t58 -8q70 0 114.5 42t44.5 117q0 69 -42 108t-117 39q-31 0 -59.5 -10t-51 -30t-36 -50t-13.5 -70z" />
    <glyph glyph-name="guillemotright" unicode="&#xbb;" horiz-adv-x="500" 
d="M190 269q-26 -38 -54.5 -77t-58.5 -77q33 -18 66 -45q30 51 62 99.5t65 99.5q-32 49 -64.5 97t-62.5 99q-33 -27 -65 -44q29 -38 57.5 -76t54.5 -76zM338 269q-26 -38 -54.5 -77t-58.5 -77q33 -18 66 -45q30 51 62 99.5t65 99.5q-32 49 -64.5 97t-62.5 99
q-33 -27 -65 -44q29 -38 57.5 -76t54.5 -76z" />
    <glyph glyph-name="onequarter" unicode="&#xbc;" horiz-adv-x="834" 
d="M118 596l4 -3v-161q0 -51 -2.5 -96.5t-4.5 -69.5q16 1 29 2t26 1t26 -1t30 -2q-2 47 -3 80t-1 65v45v37q0 45 2 94t5 85l-18 5q-51 -24 -95 -42t-92 -34v-5q14 -15 27 -33q18 7 35 15.5t32 17.5zM485 682l-289 -705q18 3 36 3t36 -3l289 705q-18 -3 -36 -3t-36 3z
M627 328v-167h-117l-4 6q29 40 58 79.5t61 81.5h2zM627 92l-5 -92h27h25h25h27q-4 21 -4.5 45t-0.5 47l54 -3q-1 11 -2 20t-1 17t1 17t2 19l-54 -5v75q0 56 1.5 103.5t4.5 67.5q-13 -1 -23.5 -2t-21.5 -1t-21.5 1t-21.5 2q-48 -63 -91 -125.5t-88 -125.5q1 -8 2 -14.5
t1 -14.5t-1 -15t-2 -16h167z" />
    <glyph glyph-name="onehalf" unicode="&#xbd;" horiz-adv-x="834" 
d="M118 596l4 -3v-161q0 -51 -2.5 -96.5t-4.5 -69.5q16 1 29 2t26 1t26 -1t30 -2q-2 47 -3 80t-1 65v45v37q0 45 2 94t5 85l-18 5q-51 -24 -95 -42t-92 -34v-5q14 -15 27 -33q18 7 35 15.5t32 17.5zM475 25v-25h70h70h73h73q-2 8 -3.5 18t-1.5 21t1.5 20.5t3.5 20.5
q-48 -2 -92.5 -2.5t-87.5 -0.5l-1 2q40 25 73 53t57 55.5t37.5 54t13.5 47.5q0 25 -8 46t-26 36t-47 23.5t-71 8.5q-57 0 -90 -22t-45 -55q13 -9 25.5 -18.5t25.5 -20.5l8 2q0 11 3 25t9.5 27t18 21.5t29.5 8.5q22 0 41 -17t19 -65q0 -53 -40.5 -116.5t-137.5 -147.5z
M488 682l-289 -705q18 3 36 3t36 -3l289 705q-18 -3 -36 -3t-36 3z" />
    <glyph glyph-name="threequarters" unicode="&#xbe;" horiz-adv-x="834" 
d="M98 492v-32q8 0 15 1t15 1q32 0 51 -25t19 -64q0 -37 -20.5 -61.5t-49.5 -24.5q-31 0 -46.5 22t-19.5 49h-12q-9 -13 -19.5 -25.5t-21.5 -26.5q16 -19 45.5 -33t83.5 -14q32 0 62 8.5t53.5 24t38 38t14.5 50.5q0 52 -28.5 72.5t-82.5 27.5v5q45 14 68.5 36t23.5 57
q0 20 -7 37t-23.5 29.5t-43 20t-65.5 7.5q-54 0 -82.5 -15.5t-45.5 -43.5q11 -10 22.5 -20t20.5 -20h12q4 31 16.5 51t41.5 20q22 0 38 -16t16 -55q0 -83 -72 -83q-5 0 -8.5 0.5t-8.5 1.5zM515 682l-289 -705q18 3 36 3t36 -3l289 705q-18 -3 -36 -3t-36 3zM627 328v-167
h-117l-4 6q29 40 58 79.5t61 81.5h2zM627 92l-5 -92h27h25h25h27q-4 21 -4.5 45t-0.5 47l54 -3q-1 11 -2 20t-1 17t1 17t2 19l-54 -5v75q0 56 1.5 103.5t4.5 67.5q-13 -1 -23.5 -2t-21.5 -1t-21.5 1t-21.5 2q-48 -63 -91 -125.5t-88 -125.5q1 -8 2 -14.5t1 -14.5t-1 -15
t-2 -16h167z" />
    <glyph glyph-name="questiondown" unicode="&#xbf;" horiz-adv-x="444" 
d="M146 410q0 -34 24 -58t58 -24t58 24t24 58t-24 58t-58 24t-58 -24t-24 -58zM124 220l9 -5q11 6 21 9.5t22 3.5q23 0 36.5 -15.5t13.5 -32.5q0 -28 -25 -54.5t-55 -56t-55 -63.5t-25 -80q0 -36 14 -63.5t38.5 -46t57 -28t69.5 -9.5q39 0 75 10t58 27l-4 68h-12
q-11 -24 -33 -39t-52 -15q-13 0 -27 3.5t-25 11.5t-18 21t-7 33q0 27 16.5 51t54.5 58q26 27 48.5 58.5t22.5 73.5q0 26 -9.5 49.5t-27.5 41t-44.5 28t-60.5 10.5q-17 0 -31 -2t-29 -6q-6 -22 -16 -41z" />
    <glyph glyph-name="Agrave" unicode="&#xc0;" horiz-adv-x="667" 
d="M360 725h55q-56 68 -88.5 106t-51.5 56t-29 22t-21 4q-24 0 -35.5 -14t-11.5 -31q0 -10 4 -19t22 -23.5t54.5 -38t101.5 -62.5zM388 259h-183q22 61 45 119.5t49 118.5q24 -60 45.5 -118.5t43.5 -119.5zM375 690q-10 -2 -19 -3.5t-19 -1.5t-19 1.5t-19 3.5
q-22 -57 -48.5 -123t-54 -134t-55 -134.5t-51.5 -124.5t-44 -104t-32 -72q14 2 26 2h24h23.5t23.5 -2q14 49 31 100t37 102q26 1 52 1.5t52 0.5q32 0 64 -0.5t64 -1.5q19 -51 36 -102t33 -100q21 2 42.5 2h42.5h42.5t45.5 -2q-29 58 -64 142t-72 177.5t-73.5 190.5
t-68.5 182z" />
    <glyph glyph-name="Aacute" unicode="&#xc1;" horiz-adv-x="667" 
d="M252 725h55q65 39 101.5 62.5t54.5 38t22 23.5t4 19q0 17 -11.5 31t-35.5 14q-11 0 -21 -4t-29 -22t-51.5 -56t-88.5 -106zM388 259h-183q22 61 45 119.5t49 118.5q24 -60 45.5 -118.5t43.5 -119.5zM375 690q-10 -2 -19 -3.5t-19 -1.5t-19 1.5t-19 3.5
q-22 -57 -48.5 -123t-54 -134t-55 -134.5t-51.5 -124.5t-44 -104t-32 -72q14 2 26 2h24h23.5t23.5 -2q14 49 31 100t37 102q26 1 52 1.5t52 0.5q32 0 64 -0.5t64 -1.5q19 -51 36 -102t33 -100q21 2 42.5 2h42.5h42.5t45.5 -2q-29 58 -64 142t-72 177.5t-73.5 190.5
t-68.5 182z" />
    <glyph glyph-name="Acircumflex" unicode="&#xc2;" horiz-adv-x="667" 
d="M333 822l112 -97h56l-121 177h-94l-120 -177h56zM388 259h-183q22 61 45 119.5t49 118.5q24 -60 45.5 -118.5t43.5 -119.5zM375 690q-10 -2 -19 -3.5t-19 -1.5t-19 1.5t-19 3.5q-22 -57 -48.5 -123t-54 -134t-55 -134.5t-51.5 -124.5t-44 -104t-32 -72q14 2 26 2h24h23.5
t23.5 -2q14 49 31 100t37 102q26 1 52 1.5t52 0.5q32 0 64 -0.5t64 -1.5q19 -51 36 -102t33 -100q21 2 42.5 2h42.5h42.5t45.5 -2q-29 58 -64 142t-72 177.5t-73.5 190.5t-68.5 182z" />
    <glyph glyph-name="Atilde" unicode="&#xc3;" horiz-adv-x="667" 
d="M151 745h43q11 28 23.5 37t29.5 9q16 0 33.5 -7t36.5 -16t39 -16t42 -7q27 0 47.5 10.5t35 28t23 40t12.5 47.5h-43q-11 -28 -23.5 -37t-29.5 -9q-16 0 -33.5 7t-36.5 16t-39 16t-42 7q-27 0 -47.5 -10.5t-35 -28t-23 -40t-12.5 -47.5zM388 259h-183q22 61 45 119.5
t49 118.5q24 -60 45.5 -118.5t43.5 -119.5zM375 690q-10 -2 -19 -3.5t-19 -1.5t-19 1.5t-19 3.5q-22 -57 -48.5 -123t-54 -134t-55 -134.5t-51.5 -124.5t-44 -104t-32 -72q14 2 26 2h24h23.5t23.5 -2q14 49 31 100t37 102q26 1 52 1.5t52 0.5q32 0 64 -0.5t64 -1.5
q19 -51 36 -102t33 -100q21 2 42.5 2h42.5h42.5t45.5 -2q-29 58 -64 142t-72 177.5t-73.5 190.5t-68.5 182z" />
    <glyph glyph-name="Adieresis" unicode="&#xc4;" horiz-adv-x="667" 
d="M374 799q0 -27 19 -46t46 -19t46 19t19 46t-19 46t-46 19t-46 -19t-19 -46zM163 799q0 -27 19 -46t46 -19t46 19t19 46t-19 46t-46 19t-46 -19t-19 -46zM388 259h-183q22 61 45 119.5t49 118.5q24 -60 45.5 -118.5t43.5 -119.5zM375 690q-10 -2 -19 -3.5t-19 -1.5
t-19 1.5t-19 3.5q-22 -57 -48.5 -123t-54 -134t-55 -134.5t-51.5 -124.5t-44 -104t-32 -72q14 2 26 2h24h23.5t23.5 -2q14 49 31 100t37 102q26 1 52 1.5t52 0.5q32 0 64 -0.5t64 -1.5q19 -51 36 -102t33 -100q21 2 42.5 2h42.5h42.5t45.5 -2q-29 58 -64 142t-72 177.5
t-73.5 190.5t-68.5 182z" />
    <glyph glyph-name="Aring" unicode="&#xc5;" horiz-adv-x="667" 
d="M391 813q0 -24 -16.5 -40.5t-40.5 -16.5q-25 0 -41 16.5t-16 40.5t16 40.5t41 16.5q24 0 40.5 -16.5t16.5 -40.5zM226 813q0 -22 8.5 -42t23 -34.5t34.5 -23t42 -8.5t41.5 8.5t34.5 23t23.5 34.5t8.5 42q0 23 -8.5 42.5t-23.5 34t-34.5 23t-41.5 8.5t-42 -8.5t-34.5 -23
t-23 -34t-8.5 -42.5zM388 259h-183q22 61 45 119.5t49 118.5q24 -60 45.5 -118.5t43.5 -119.5zM375 690q-10 -2 -19 -3.5t-19 -1.5t-19 1.5t-19 3.5q-22 -57 -48.5 -123t-54 -134t-55 -134.5t-51.5 -124.5t-44 -104t-32 -72q14 2 26 2h24h23.5t23.5 -2q14 49 31 100t37 102
q26 1 52 1.5t52 0.5q32 0 64 -0.5t64 -1.5q19 -51 36 -102t33 -100q21 2 42.5 2h42.5h42.5t45.5 -2q-29 58 -64 142t-72 177.5t-73.5 190.5t-68.5 182z" />
    <glyph glyph-name="AE" unicode="&#xc6;" horiz-adv-x="889" 
d="M617 392q0 55 0.5 109t4.5 109q11 0 37 -1t58.5 -3t67 -4t63.5 -4q-2 11 -3 20t-1 25q0 26 4 42q-20 -2 -77.5 -3.5t-131.5 -1.5q-102 0 -152.5 1.5t-66.5 3.5q-33 -57 -74 -126t-83.5 -140.5t-84.5 -140.5l-77 -126.5t-60 -98.5t-34 -55q14 2 27.5 2h26.5q28 0 51 -2
q26 58 56.5 115.5t64.5 117.5q32 1 65 2.5t65 1.5q26 0 53 -1.5t53 -3.5q-1 -69 -2.5 -123t-5.5 -109q8 1 19.5 1.5t34 0.5h59.5h99q69 0 108.5 -0.5t66.5 -1.5q-2 6 -3 15t-1 25t1 25t3 20q-58 -7 -115 -10t-114 -3q-3 60 -3 125q0 32 0.5 64t0.5 64q113 0 227 -9
q-2 16 -3.5 24.5t-1.5 16.5q0 10 1 19t4 26q-57 -3 -109.5 -5t-117.5 -3zM460 610h8q1 -40 1 -80v-77v-154q-25 -1 -49 -1.5t-49 -0.5t-48.5 1.5t-49.5 1.5q42 78 89 154.5t98 155.5z" />
    <glyph glyph-name="Ccedilla" unicode="&#xc7;" horiz-adv-x="667" 
d="M301 -158l-16 -37q4 -2 14.5 -5t23 -6t26 -5t24.5 -2q64 0 101.5 22.5t37.5 64.5q0 31 -21 52t-69 21q-18 0 -32 -5l17 43q120 0 201 41q2 21 8 42.5t14 42.5l-13 8q-16 -17 -37.5 -31t-45.5 -23.5t-49 -15t-49 -5.5q-43 0 -85.5 16t-76 50.5t-54.5 89t-21 131.5
q0 80 20.5 137.5t53.5 94.5t73.5 55t80.5 18q54 0 94 -20.5t78 -68.5h14q2 26 7.5 51.5t15.5 50.5q-17 10 -41.5 19t-51.5 15.5t-56 10.5t-55 4q-79 0 -151 -21t-126.5 -66.5t-87 -118t-32.5 -176.5q0 -67 22.5 -125t65 -102t104 -70t139.5 -32l-33 -77l11 -8q9 4 28 4
q46 0 46 -37q0 -20 -15.5 -30.5t-42.5 -10.5q-19 0 -33.5 4.5t-25.5 9.5z" />
    <glyph glyph-name="Egrave" unicode="&#xc8;" horiz-adv-x="500" 
d="M302 725h55q-56 68 -88.5 106t-51.5 56t-29 22t-21 4q-24 0 -35.5 -14t-11.5 -31q0 -10 4 -19t22 -23.5t54.5 -38t101.5 -62.5zM80 408v-136q0 -83 -2 -147.5t-6 -126.5q8 1 19.5 1.5t34 0.5h59.5h99q69 0 108.5 -0.5t66.5 -1.5q-2 6 -3 15t-1 25t1 25t3 20
q-58 -7 -115 -10t-114 -3q-3 60 -3 125q0 32 0.5 64t0.5 64q113 0 227 -9q-2 16 -3.5 24.5t-1.5 16.5q0 10 1 19t4 26q-57 -3 -109.5 -5t-117.5 -3q0 55 0.5 109t4.5 109q11 0 37 -1t58.5 -3t67 -4t63.5 -4q-2 11 -3 20t-1 25q0 26 4 42q-20 -2 -77.5 -3.5t-131.5 -1.5
q-45 0 -89 2t-89 3q4 -65 6 -129.5t2 -147.5z" />
    <glyph glyph-name="Eacute" unicode="&#xc9;" horiz-adv-x="500" 
d="M194 725h55q65 39 101.5 62.5t54.5 38t22 23.5t4 19q0 17 -11.5 31t-35.5 14q-11 0 -21 -4t-29 -22t-51.5 -56t-88.5 -106zM80 408v-136q0 -83 -2 -147.5t-6 -126.5q8 1 19.5 1.5t34 0.5h59.5h99q69 0 108.5 -0.5t66.5 -1.5q-2 6 -3 15t-1 25t1 25t3 20q-58 -7 -115 -10
t-114 -3q-3 60 -3 125q0 32 0.5 64t0.5 64q113 0 227 -9q-2 16 -3.5 24.5t-1.5 16.5q0 10 1 19t4 26q-57 -3 -109.5 -5t-117.5 -3q0 55 0.5 109t4.5 109q11 0 37 -1t58.5 -3t67 -4t63.5 -4q-2 11 -3 20t-1 25q0 26 4 42q-20 -2 -77.5 -3.5t-131.5 -1.5q-45 0 -89 2t-89 3
q4 -65 6 -129.5t2 -147.5z" />
    <glyph glyph-name="Ecircumflex" unicode="&#xca;" horiz-adv-x="500" 
d="M250 822l112 -97h56l-121 177h-94l-120 -177h56zM80 408v-136q0 -83 -2 -147.5t-6 -126.5q8 1 19.5 1.5t34 0.5h59.5h99q69 0 108.5 -0.5t66.5 -1.5q-2 6 -3 15t-1 25t1 25t3 20q-58 -7 -115 -10t-114 -3q-3 60 -3 125q0 32 0.5 64t0.5 64q113 0 227 -9q-2 16 -3.5 24.5
t-1.5 16.5q0 10 1 19t4 26q-57 -3 -109.5 -5t-117.5 -3q0 55 0.5 109t4.5 109q11 0 37 -1t58.5 -3t67 -4t63.5 -4q-2 11 -3 20t-1 25q0 26 4 42q-20 -2 -77.5 -3.5t-131.5 -1.5q-45 0 -89 2t-89 3q4 -65 6 -129.5t2 -147.5z" />
    <glyph glyph-name="Edieresis" unicode="&#xcb;" horiz-adv-x="500" 
d="M291 799q0 -27 19 -46t46 -19t46 19t19 46t-19 46t-46 19t-46 -19t-19 -46zM80 799q0 -27 19 -46t46 -19t46 19t19 46t-19 46t-46 19t-46 -19t-19 -46zM80 408v-136q0 -83 -2 -147.5t-6 -126.5q8 1 19.5 1.5t34 0.5h59.5h99q69 0 108.5 -0.5t66.5 -1.5q-2 6 -3 15t-1 25
t1 25t3 20q-58 -7 -115 -10t-114 -3q-3 60 -3 125q0 32 0.5 64t0.5 64q113 0 227 -9q-2 16 -3.5 24.5t-1.5 16.5q0 10 1 19t4 26q-57 -3 -109.5 -5t-117.5 -3q0 55 0.5 109t4.5 109q11 0 37 -1t58.5 -3t67 -4t63.5 -4q-2 11 -3 20t-1 25q0 26 4 42q-20 -2 -77.5 -3.5
t-131.5 -1.5q-45 0 -89 2t-89 3q4 -65 6 -129.5t2 -147.5z" />
    <glyph glyph-name="Igrave" unicode="&#xcc;" horiz-adv-x="333" 
d="M193 725h55q-56 68 -88.5 106t-51.5 56t-29 22t-21 4q-24 0 -35.5 -14t-11.5 -31q0 -10 4 -19t22 -23.5t54.5 -38t101.5 -62.5zM93 408v-136q0 -83 -2 -147.5t-6 -126.5q17 2 37 2h45h45t37 -2q-4 62 -6 126.5t-2 147.5v136q0 83 2 147.5t6 129.5q-17 -2 -37 -3.5
t-45 -1.5t-45 1.5t-37 3.5q4 -65 6 -129.5t2 -147.5z" />
    <glyph glyph-name="Iacute" unicode="&#xcd;" horiz-adv-x="333" 
d="M85 725h55q65 39 101.5 62.5t54.5 38t22 23.5t4 19q0 17 -11.5 31t-35.5 14q-11 0 -21 -4t-29 -22t-51.5 -56t-88.5 -106zM93 408v-136q0 -83 -2 -147.5t-6 -126.5q17 2 37 2h45h45t37 -2q-4 62 -6 126.5t-2 147.5v136q0 83 2 147.5t6 129.5q-17 -2 -37 -3.5t-45 -1.5
t-45 1.5t-37 3.5q4 -65 6 -129.5t2 -147.5z" />
    <glyph glyph-name="Icircumflex" unicode="&#xce;" horiz-adv-x="333" 
d="M166 822l112 -97h56l-121 177h-94l-119 -177h55zM93 408v-136q0 -83 -2 -147.5t-6 -126.5q17 2 37 2h45h45t37 -2q-4 62 -6 126.5t-2 147.5v136q0 83 2 147.5t6 129.5q-17 -2 -37 -3.5t-45 -1.5t-45 1.5t-37 3.5q4 -65 6 -129.5t2 -147.5z" />
    <glyph glyph-name="Idieresis" unicode="&#xcf;" horiz-adv-x="333" 
d="M207 799q0 -27 19 -46t46 -19t46 19t19 46t-19 46t-46 19t-46 -19t-19 -46zM-1 799q0 -27 17.5 -46t44.5 -19t46 19t19 46t-19 46t-46 19t-44.5 -19t-17.5 -46zM93 408v-136q0 -83 -2 -147.5t-6 -126.5q17 2 37 2h45h45t37 -2q-4 62 -6 126.5t-2 147.5v136q0 83 2 147.5
t6 129.5q-17 -2 -37 -3.5t-45 -1.5t-45 1.5t-37 3.5q4 -65 6 -129.5t2 -147.5z" />
    <glyph glyph-name="Eth" unicode="&#xd0;" horiz-adv-x="778" 
d="M237 250v105q47 0 80 -1t68 -2q-3 15 -3 29q0 15 3 28q-35 -1 -68 -2t-80 -1v22v50v60q0 30 0.5 54t0.5 31q23 2 45.5 3.5t58.5 1.5q52 0 94 -18.5t72 -53t46.5 -83.5t16.5 -111q0 -156 -66 -233t-179 -77q-31 0 -52 1t-36 2q0 7 -0.5 31t-0.5 53v60v51zM89 357v-85
q0 -83 -2 -147.5t-6 -126.5q17 2 37 2h45q39 0 92 -1t128 -1q71 0 133.5 25t110 72.5t75 114.5t27.5 150q0 51 -11.5 95.5t-31 80.5t-45.5 63t-56 42q-27 14 -51 23t-53.5 13.5t-69.5 6t-100 1.5q-33 0 -74 -2.5t-74 -2.5q-25 0 -45 1.5t-37 3.5q2 -33 3.5 -64.5t2.5 -65
t1.5 -70t0.5 -79.5q-42 3 -88 3q3 -13 3 -28q0 -14 -3 -29q24 2 45.5 2.5t42.5 2.5z" />
    <glyph glyph-name="Ntilde" unicode="&#xd1;" horiz-adv-x="778" 
d="M222 745h43q11 28 23.5 37t29.5 9q16 0 33.5 -7t36.5 -16t39 -16t42 -7q27 0 47.5 10.5t35 28t23 40t12.5 47.5h-43q-11 -28 -23.5 -37t-29.5 -9q-16 0 -33.5 7t-36.5 16t-39 16t-42 7q-27 0 -47.5 -10.5t-35 -28t-23 -40t-12.5 -47.5zM98 486q0 -76 -2.5 -158.5t-6 -153
t-6.5 -119.5t-5 -57q23 2 46 2h23t24 -2q-1 11 -2 29.5t-2 47.5t-1.5 71t-0.5 102v116q0 30 0.5 59t1.5 58q231 -243 437 -483q17 2 39 2q21 0 41 -2v120q0 72 0.5 135.5t2.5 128.5t5 138.5t8 164.5q-28 -5 -45 -5t-45 5q2 -10 3.5 -39t2 -69t1 -87.5t0.5 -96.5v-97v-87
q-112 121 -218.5 238t-215.5 238q-28 -5 -45 -5t-45 5q1 -36 3 -83t2 -116z" />
    <glyph glyph-name="Ograve" unicode="&#xd2;" horiz-adv-x="833" 
d="M443 725h55q-56 68 -88.5 106t-51.5 56t-29 22t-21 4q-24 0 -35.5 -14t-11.5 -31q0 -10 4 -19t22 -23.5t54.5 -38t101.5 -62.5zM634 362q0 -82 -18.5 -142t-49 -99t-71.5 -58t-86 -19q-42 0 -80 15t-67 48.5t-46 88.5t-17 135q0 64 14.5 120.5t42.5 98.5t68.5 66.5
t91.5 24.5q48 0 88.5 -19.5t69 -55.5t44.5 -87.5t16 -116.5zM35 340q0 -94 30 -161.5t81.5 -111t121 -63t148.5 -19.5q84 0 154 27t120.5 75.5t79 113.5t28.5 140q0 90 -29.5 157.5t-80.5 111.5t-120 66t-149 22q-87 0 -158 -28t-121 -77t-77.5 -114t-27.5 -139z" />
    <glyph glyph-name="Oacute" unicode="&#xd3;" horiz-adv-x="833" 
d="M335 725h55q65 39 101.5 62.5t54.5 38t22 23.5t4 19q0 17 -11.5 31t-35.5 14q-11 0 -21 -4t-29 -22t-51.5 -56t-88.5 -106zM634 362q0 -82 -18.5 -142t-49 -99t-71.5 -58t-86 -19q-42 0 -80 15t-67 48.5t-46 88.5t-17 135q0 64 14.5 120.5t42.5 98.5t68.5 66.5t91.5 24.5
q48 0 88.5 -19.5t69 -55.5t44.5 -87.5t16 -116.5zM35 340q0 -94 30 -161.5t81.5 -111t121 -63t148.5 -19.5q84 0 154 27t120.5 75.5t79 113.5t28.5 140q0 90 -29.5 157.5t-80.5 111.5t-120 66t-149 22q-87 0 -158 -28t-121 -77t-77.5 -114t-27.5 -139z" />
    <glyph glyph-name="Ocircumflex" unicode="&#xd4;" horiz-adv-x="833" 
d="M416 822l112 -97h56l-121 177h-94l-120 -177h56zM634 362q0 -82 -18.5 -142t-49 -99t-71.5 -58t-86 -19q-42 0 -80 15t-67 48.5t-46 88.5t-17 135q0 64 14.5 120.5t42.5 98.5t68.5 66.5t91.5 24.5q48 0 88.5 -19.5t69 -55.5t44.5 -87.5t16 -116.5zM35 340
q0 -94 30 -161.5t81.5 -111t121 -63t148.5 -19.5q84 0 154 27t120.5 75.5t79 113.5t28.5 140q0 90 -29.5 157.5t-80.5 111.5t-120 66t-149 22q-87 0 -158 -28t-121 -77t-77.5 -114t-27.5 -139z" />
    <glyph glyph-name="Otilde" unicode="&#xd5;" horiz-adv-x="833" 
d="M234 745h43q11 28 23.5 37t29.5 9q16 0 33.5 -7t36.5 -16t39 -16t42 -7q27 0 47.5 10.5t35 28t23 40t12.5 47.5h-43q-11 -28 -23.5 -37t-29.5 -9q-16 0 -33.5 7t-36.5 16t-39 16t-42 7q-27 0 -47.5 -10.5t-35 -28t-23 -40t-12.5 -47.5zM634 362q0 -82 -18.5 -142t-49 -99
t-71.5 -58t-86 -19q-42 0 -80 15t-67 48.5t-46 88.5t-17 135q0 64 14.5 120.5t42.5 98.5t68.5 66.5t91.5 24.5q48 0 88.5 -19.5t69 -55.5t44.5 -87.5t16 -116.5zM35 340q0 -94 30 -161.5t81.5 -111t121 -63t148.5 -19.5q84 0 154 27t120.5 75.5t79 113.5t28.5 140
q0 90 -29.5 157.5t-80.5 111.5t-120 66t-149 22q-87 0 -158 -28t-121 -77t-77.5 -114t-27.5 -139z" />
    <glyph glyph-name="Odieresis" unicode="&#xd6;" horiz-adv-x="833" 
d="M457 799q0 -27 19 -46t46 -19t46 19t19 46t-19 46t-46 19t-46 -19t-19 -46zM246 799q0 -27 19 -46t46 -19t46 19t19 46t-19 46t-46 19t-46 -19t-19 -46zM634 362q0 -82 -18.5 -142t-49 -99t-71.5 -58t-86 -19q-42 0 -80 15t-67 48.5t-46 88.5t-17 135q0 64 14.5 120.5
t42.5 98.5t68.5 66.5t91.5 24.5q48 0 88.5 -19.5t69 -55.5t44.5 -87.5t16 -116.5zM35 340q0 -94 30 -161.5t81.5 -111t121 -63t148.5 -19.5q84 0 154 27t120.5 75.5t79 113.5t28.5 140q0 90 -29.5 157.5t-80.5 111.5t-120 66t-149 22q-87 0 -158 -28t-121 -77t-77.5 -114
t-27.5 -139z" />
    <glyph glyph-name="multiply" unicode="&#xd7;" horiz-adv-x="606" 
d="M471 486l-168 -168l-168 168l-67 -66l168 -169l-168 -169l66 -66l169 168l168 -168l67 66l-169 169l169 169z" />
    <glyph glyph-name="Oslash" unicode="&#xd8;" horiz-adv-x="833" 
d="M751 734l-95 -101q-48 33 -108 49t-129 16q-87 0 -158 -28t-121 -77t-77.5 -114t-27.5 -139q0 -90 26.5 -154t72.5 -107l-92 -94q13 -8 21.5 -16.5t17.5 -19.5l94 97q51 -33 111.5 -47t129.5 -14q84 0 154 27t120.5 75.5t79 113.5t28.5 140q0 87 -26 150.5t-74 108.5
l92 98q-13 8 -21.5 16.5t-17.5 19.5zM581 554l-357 -379q-12 31 -18.5 69.5t-6.5 86.5q0 64 14.5 120.5t42.5 98.5t68.5 66.5t91.5 24.5q54 0 95.5 -22.5t69.5 -64.5zM249 125l359 379q26 -63 26 -142q0 -82 -18.5 -142t-49 -99t-71.5 -58t-86 -19q-48 0 -89.5 18t-70.5 63z
" />
    <glyph glyph-name="Ugrave" unicode="&#xd9;" horiz-adv-x="778" 
d="M441 725h55q-56 68 -88.5 106t-51.5 56t-29 22t-21 4q-24 0 -35.5 -14t-11.5 -31q0 -10 4 -19t22 -23.5t54.5 -38t101.5 -62.5zM394 -15q145 0 220 75.5t75 249.5q0 65 1.5 123.5t3.5 107t4 85.5t4 59q-13 -2 -25 -3.5t-25 -1.5q-11 0 -24 1.5t-27 3.5q4 -69 6 -137.5
t2 -137.5q0 -70 -4 -134.5t-21.5 -114.5t-51.5 -80t-94 -30q-49 0 -86 10t-62.5 40.5t-38.5 86.5t-13 147q0 86 2 169.5t12 180.5q-20 -2 -41 -3.5t-41 -1.5t-41 1.5t-41 3.5q2 -25 3 -75t1 -131q0 -27 -0.5 -52t-0.5 -52t-0.5 -58.5t-0.5 -71.5q0 -71 23.5 -120.5t64.5 -81
t96.5 -45t119.5 -13.5z" />
    <glyph glyph-name="Uacute" unicode="&#xda;" horiz-adv-x="778" 
d="M343 725h55q65 39 101.5 62.5t54.5 38t22 23.5t4 19q0 17 -11.5 31t-35.5 14q-11 0 -21 -4t-29 -22t-51.5 -56t-88.5 -106zM394 -15q145 0 220 75.5t75 249.5q0 65 1.5 123.5t3.5 107t4 85.5t4 59q-13 -2 -25 -3.5t-25 -1.5q-11 0 -24 1.5t-27 3.5q4 -69 6 -137.5
t2 -137.5q0 -70 -4 -134.5t-21.5 -114.5t-51.5 -80t-94 -30q-49 0 -86 10t-62.5 40.5t-38.5 86.5t-13 147q0 86 2 169.5t12 180.5q-20 -2 -41 -3.5t-41 -1.5t-41 1.5t-41 3.5q2 -25 3 -75t1 -131q0 -27 -0.5 -52t-0.5 -52t-0.5 -58.5t-0.5 -71.5q0 -71 23.5 -120.5t64.5 -81
t96.5 -45t119.5 -13.5z" />
    <glyph glyph-name="Ucircumflex" unicode="&#xdb;" horiz-adv-x="778" 
d="M414 822l112 -97h56l-121 177h-94l-120 -177h56zM394 -15q145 0 220 75.5t75 249.5q0 65 1.5 123.5t3.5 107t4 85.5t4 59q-13 -2 -25 -3.5t-25 -1.5q-11 0 -24 1.5t-27 3.5q4 -69 6 -137.5t2 -137.5q0 -70 -4 -134.5t-21.5 -114.5t-51.5 -80t-94 -30q-49 0 -86 10
t-62.5 40.5t-38.5 86.5t-13 147q0 86 2 169.5t12 180.5q-20 -2 -41 -3.5t-41 -1.5t-41 1.5t-41 3.5q2 -25 3 -75t1 -131q0 -27 -0.5 -52t-0.5 -52t-0.5 -58.5t-0.5 -71.5q0 -71 23.5 -120.5t64.5 -81t96.5 -45t119.5 -13.5z" />
    <glyph glyph-name="Udieresis" unicode="&#xdc;" horiz-adv-x="778" 
d="M455 799q0 -27 19 -46t46 -19t46 19t19 46t-19 46t-46 19t-46 -19t-19 -46zM244 799q0 -27 19 -46t46 -19t46 19t19 46t-19 46t-46 19t-46 -19t-19 -46zM394 -15q145 0 220 75.5t75 249.5q0 65 1.5 123.5t3.5 107t4 85.5t4 59q-13 -2 -25 -3.5t-25 -1.5q-11 0 -24 1.5
t-27 3.5q4 -69 6 -137.5t2 -137.5q0 -70 -4 -134.5t-21.5 -114.5t-51.5 -80t-94 -30q-49 0 -86 10t-62.5 40.5t-38.5 86.5t-13 147q0 86 2 169.5t12 180.5q-20 -2 -41 -3.5t-41 -1.5t-41 1.5t-41 3.5q2 -25 3 -75t1 -131q0 -27 -0.5 -52t-0.5 -52t-0.5 -58.5t-0.5 -71.5
q0 -71 23.5 -120.5t64.5 -81t96.5 -45t119.5 -13.5z" />
    <glyph glyph-name="Yacute" unicode="&#xdd;" horiz-adv-x="611" 
d="M259 725h55q65 39 101.5 62.5t54.5 38t22 23.5t4 19q0 17 -11.5 31t-35.5 14q-11 0 -21 -4t-29 -22t-51.5 -56t-88.5 -106zM353 385h-2q-11 17 -29 52t-39 78t-42.5 88t-38.5 82q-23 -2 -44.5 -3.5t-44.5 -1.5t-45 1.5t-45 3.5q12 -21 37.5 -68t56 -105t63 -119.5
t57.5 -111.5q1 -23 1.5 -46.5t0.5 -46.5q0 -48 -5 -96t-7 -94q21 2 42.5 2h42.5h42.5t42.5 -2q-7 55 -8.5 105t-1.5 101q0 25 1 49.5t1 48.5q24 47 53.5 102.5t58.5 108.5t54.5 98.5t42.5 73.5q-13 -2 -24.5 -3.5t-23.5 -1.5t-23.5 1.5t-22.5 3.5q-17 -37 -35 -77.5
t-37 -80.5t-39 -76.5t-40 -65.5z" />
    <glyph glyph-name="Thorn" unicode="&#xde;" 
d="M229 512h33q29 0 49.5 -10t33 -27t18.5 -40t6 -50q0 -72 -34 -109t-106 -37q-1 5 -1 15v18v136v55v25q0 13 1 24zM80 408v-136q0 -83 -2 -147.5t-6 -126.5q17 2 37 2h45h45t37 -2q-3 44 -5 88.5t-2 98.5h70q47 0 88.5 13t72.5 38.5t49 64.5t18 90q0 45 -15.5 78.5
t-42 55.5t-63 33t-78.5 11h-97q0 29 1.5 58t3.5 58q-17 -2 -37 -3.5t-45 -1.5t-45 1.5t-37 3.5q4 -65 6 -129.5t2 -147.5z" />
    <glyph glyph-name="germandbls" unicode="&#xdf;" 
d="M277 95h-15q0 -44 -23 -92q16 -5 37.5 -11.5t54.5 -6.5q35 0 70.5 16.5t64 45.5t46 66t17.5 77q0 35 -13.5 61t-33.5 46t-44 36.5t-44 33.5t-33.5 35.5t-13.5 43.5q0 18 10.5 35.5t39.5 46.5q26 26 38 48.5t12 51.5q0 57 -41.5 92t-123.5 35q-49 0 -91 -14.5t-73 -43
t-48 -70.5t-17 -97q0 -75 4 -139.5t4 -106.5q0 -57 -2 -130t-6 -156q13 2 33 2h42h42t33 -2q-2 24 -3.5 56.5t-2.5 64t-1.5 58t-0.5 40.5v363q0 63 22 98.5t70 35.5q17 0 32.5 -6t28 -17.5t20 -28.5t7.5 -38q0 -29 -17 -65t-41 -66q-37 -46 -52 -75.5t-15 -59.5
q0 -31 13.5 -54.5t34.5 -43.5t44.5 -37.5t44.5 -35.5t34.5 -39t13.5 -47q0 -28 -20.5 -45t-51.5 -17q-27 0 -49 16.5t-37 39.5z" />
    <glyph glyph-name="agrave" unicode="&#xe0;" horiz-adv-x="500" 
d="M283 559h55q-56 68 -88.5 106t-51.5 56t-29 22t-21 4q-24 0 -35.5 -14t-11.5 -31q0 -10 4 -19t22 -23.5t54.5 -38t101.5 -62.5zM295 150q0 -49 -20.5 -74t-53.5 -25q-26 0 -41.5 19.5t-15.5 56.5q0 38 12.5 58t32 31.5t43 19t44.5 19.5q0 -17 -0.5 -39.5t-0.5 -65.5z
M58 422l13 -60h7q7 11 20.5 20.5t30 17.5t34.5 12.5t35 4.5q45 0 70.5 -25.5t25.5 -61.5q0 -13 -3.5 -22t-15.5 -16.5t-36.5 -15t-66.5 -17.5q-34 -8 -61 -19.5t-46.5 -28.5t-30 -41t-10.5 -57q0 -24 8 -47.5t25.5 -42t44.5 -28.5t65 -10q46 0 76.5 19t53.5 51
q12 -34 35 -52t60 -18q23 0 43 6t49 18v24q-15 0 -26.5 2t-18.5 9t-10.5 20.5t-3.5 37.5q0 54 1.5 108.5t1.5 118.5q0 44 -13.5 75t-38 50.5t-58 28.5t-73.5 9q-48 0 -96.5 -18t-90.5 -52z" />
    <glyph glyph-name="aacute" unicode="&#xe1;" horiz-adv-x="500" 
d="M184 559h55q65 39 101.5 62.5t54.5 38t22 23.5t4 19q0 17 -11.5 31t-35.5 14q-11 0 -21 -4t-29 -22t-51.5 -56t-88.5 -106zM295 150q0 -49 -20.5 -74t-53.5 -25q-26 0 -41.5 19.5t-15.5 56.5q0 38 12.5 58t32 31.5t43 19t44.5 19.5q0 -17 -0.5 -39.5t-0.5 -65.5zM58 422
l13 -60h7q7 11 20.5 20.5t30 17.5t34.5 12.5t35 4.5q45 0 70.5 -25.5t25.5 -61.5q0 -13 -3.5 -22t-15.5 -16.5t-36.5 -15t-66.5 -17.5q-34 -8 -61 -19.5t-46.5 -28.5t-30 -41t-10.5 -57q0 -24 8 -47.5t25.5 -42t44.5 -28.5t65 -10q46 0 76.5 19t53.5 51q12 -34 35 -52
t60 -18q23 0 43 6t49 18v24q-15 0 -26.5 2t-18.5 9t-10.5 20.5t-3.5 37.5q0 54 1.5 108.5t1.5 118.5q0 44 -13.5 75t-38 50.5t-58 28.5t-73.5 9q-48 0 -96.5 -18t-90.5 -52z" />
    <glyph glyph-name="acircumflex" unicode="&#xe2;" horiz-adv-x="500" 
d="M250 656l112 -97h56l-121 177h-94l-120 -177h56zM295 150q0 -49 -20.5 -74t-53.5 -25q-26 0 -41.5 19.5t-15.5 56.5q0 38 12.5 58t32 31.5t43 19t44.5 19.5q0 -17 -0.5 -39.5t-0.5 -65.5zM58 422l13 -60h7q7 11 20.5 20.5t30 17.5t34.5 12.5t35 4.5q45 0 70.5 -25.5
t25.5 -61.5q0 -13 -3.5 -22t-15.5 -16.5t-36.5 -15t-66.5 -17.5q-34 -8 -61 -19.5t-46.5 -28.5t-30 -41t-10.5 -57q0 -24 8 -47.5t25.5 -42t44.5 -28.5t65 -10q46 0 76.5 19t53.5 51q12 -34 35 -52t60 -18q23 0 43 6t49 18v24q-15 0 -26.5 2t-18.5 9t-10.5 20.5t-3.5 37.5
q0 54 1.5 108.5t1.5 118.5q0 44 -13.5 75t-38 50.5t-58 28.5t-73.5 9q-48 0 -96.5 -18t-90.5 -52z" />
    <glyph glyph-name="atilde" unicode="&#xe3;" horiz-adv-x="500" 
d="M68 579h43q11 28 23.5 37t29.5 9q16 0 33.5 -7t36.5 -16t39 -16t42 -7q27 0 47.5 10.5t35 28t23 40t12.5 47.5h-43q-11 -28 -23.5 -37t-29.5 -9q-16 0 -33.5 7t-36.5 16t-39 16t-42 7q-27 0 -47.5 -10.5t-35 -28t-23 -40t-12.5 -47.5zM295 150q0 -49 -20.5 -74t-53.5 -25
q-26 0 -41.5 19.5t-15.5 56.5q0 38 12.5 58t32 31.5t43 19t44.5 19.5q0 -17 -0.5 -39.5t-0.5 -65.5zM58 422l13 -60h7q7 11 20.5 20.5t30 17.5t34.5 12.5t35 4.5q45 0 70.5 -25.5t25.5 -61.5q0 -13 -3.5 -22t-15.5 -16.5t-36.5 -15t-66.5 -17.5q-34 -8 -61 -19.5
t-46.5 -28.5t-30 -41t-10.5 -57q0 -24 8 -47.5t25.5 -42t44.5 -28.5t65 -10q46 0 76.5 19t53.5 51q12 -34 35 -52t60 -18q23 0 43 6t49 18v24q-15 0 -26.5 2t-18.5 9t-10.5 20.5t-3.5 37.5q0 54 1.5 108.5t1.5 118.5q0 44 -13.5 75t-38 50.5t-58 28.5t-73.5 9
q-48 0 -96.5 -18t-90.5 -52z" />
    <glyph glyph-name="adieresis" unicode="&#xe4;" horiz-adv-x="500" 
d="M291 633q0 -27 19 -46t46 -19t46 19t19 46t-19 46t-46 19t-46 -19t-19 -46zM80 633q0 -27 19 -46t46 -19t46 19t19 46t-19 46t-46 19t-46 -19t-19 -46zM295 150q0 -49 -20.5 -74t-53.5 -25q-26 0 -41.5 19.5t-15.5 56.5q0 38 12.5 58t32 31.5t43 19t44.5 19.5
q0 -17 -0.5 -39.5t-0.5 -65.5zM58 422l13 -60h7q7 11 20.5 20.5t30 17.5t34.5 12.5t35 4.5q45 0 70.5 -25.5t25.5 -61.5q0 -13 -3.5 -22t-15.5 -16.5t-36.5 -15t-66.5 -17.5q-34 -8 -61 -19.5t-46.5 -28.5t-30 -41t-10.5 -57q0 -24 8 -47.5t25.5 -42t44.5 -28.5t65 -10
q46 0 76.5 19t53.5 51q12 -34 35 -52t60 -18q23 0 43 6t49 18v24q-15 0 -26.5 2t-18.5 9t-10.5 20.5t-3.5 37.5q0 54 1.5 108.5t1.5 118.5q0 44 -13.5 75t-38 50.5t-58 28.5t-73.5 9q-48 0 -96.5 -18t-90.5 -52z" />
    <glyph glyph-name="aring" unicode="&#xe5;" horiz-adv-x="500" 
d="M308 647q0 -24 -16.5 -40.5t-40.5 -16.5q-25 0 -41 16.5t-16 40.5t16 40.5t41 16.5q24 0 40.5 -16.5t16.5 -40.5zM143 647q0 -22 8.5 -42t23 -34.5t34.5 -23t42 -8.5t41.5 8.5t34.5 23t23.5 34.5t8.5 42q0 23 -8.5 42.5t-23.5 34t-34.5 23t-41.5 8.5t-42 -8.5t-34.5 -23
t-23 -34t-8.5 -42.5zM295 150q0 -49 -20.5 -74t-53.5 -25q-26 0 -41.5 19.5t-15.5 56.5q0 38 12.5 58t32 31.5t43 19t44.5 19.5q0 -17 -0.5 -39.5t-0.5 -65.5zM58 422l13 -60h7q7 11 20.5 20.5t30 17.5t34.5 12.5t35 4.5q45 0 70.5 -25.5t25.5 -61.5q0 -13 -3.5 -22
t-15.5 -16.5t-36.5 -15t-66.5 -17.5q-34 -8 -61 -19.5t-46.5 -28.5t-30 -41t-10.5 -57q0 -24 8 -47.5t25.5 -42t44.5 -28.5t65 -10q46 0 76.5 19t53.5 51q12 -34 35 -52t60 -18q23 0 43 6t49 18v24q-15 0 -26.5 2t-18.5 9t-10.5 20.5t-3.5 37.5q0 54 1.5 108.5t1.5 118.5
q0 44 -13.5 75t-38 50.5t-58 28.5t-73.5 9q-48 0 -96.5 -18t-90.5 -52z" />
    <glyph glyph-name="ae" unicode="&#xe6;" horiz-adv-x="778" 
d="M318 262v-115q0 -42 -22 -71t-55 -29q-29 0 -45.5 24t-16.5 63q0 58 33.5 85.5t105.5 42.5zM605 282h-163v17q0 66 20 107t62 41q29 0 45 -18t24 -44t10 -54t2 -49zM442 237h296q1 3 1 12v21q0 106 -52.5 164t-151.5 58q-51 0 -87.5 -17.5t-61.5 -40.5q-20 23 -54.5 40.5
t-83.5 17.5q-48 0 -88 -19t-74 -51q5 -13 8.5 -25t5.5 -24q27 27 51 40.5t60 13.5q19 0 38 -5.5t34.5 -17.5t25 -31t9.5 -46q0 -10 -4 -17t-18 -13.5t-41 -14.5t-74 -20q-44 -12 -72 -26t-43.5 -32.5t-21 -42t-5.5 -54.5q0 -24 8 -46.5t25 -40t43 -26.5t63 -9q34 0 60.5 9
t46.5 24.5t33.5 35t20.5 37.5q12 -24 29.5 -44t42 -33.5t58 -21t77.5 -7.5q57 0 92 11.5t60 30.5l22 56l-12 9q-54 -45 -123 -45q-39 0 -66 14.5t-44.5 40t-25 60.5t-7.5 75z" />
    <glyph glyph-name="ccedilla" unicode="&#xe7;" horiz-adv-x="500" 
d="M179 -158l-16 -37q4 -2 14.5 -5t23 -6t26 -5t24.5 -2q64 0 101.5 22.5t37.5 64.5q0 31 -21 52t-69 21q-18 0 -32 -5l17 44q3 -1 8 -1h10q46 0 79.5 11.5t55.5 28.5l10 30t12 29l-12 10q-14 -18 -43 -32.5t-60 -14.5q-73 0 -111 48.5t-38 139.5q0 97 30 151.5t90 54.5
q46 0 69.5 -27.5t31.5 -72.5h24q5 26 15.5 55t22.5 49q-36 21 -75.5 34t-96.5 13q-60 0 -109 -19.5t-83.5 -53.5t-53 -81t-18.5 -102q0 -41 10.5 -81.5t34.5 -74.5t62.5 -57.5t94.5 -32.5l-34 -80l11 -8q9 4 28 4q46 0 46 -37q0 -20 -15.5 -30.5t-42.5 -10.5
q-19 0 -33.5 4.5t-25.5 9.5z" />
    <glyph glyph-name="egrave" unicode="&#xe8;" horiz-adv-x="500" 
d="M283 559h55q-56 68 -88.5 106t-51.5 56t-29 22t-21 4q-24 0 -35.5 -14t-11.5 -31q0 -10 4 -19t22 -23.5t54.5 -38t101.5 -62.5zM181 237h287q1 3 1 12v21q0 106 -52.5 164t-151.5 58q-50 0 -92.5 -16t-73.5 -48t-48.5 -80t-17.5 -113q0 -66 19.5 -113.5t53 -78.5
t77.5 -44.5t93 -13.5q57 0 92 11.5t60 30.5l22 56l-12 9q-54 -45 -123 -45q-34 0 -59.5 14.5t-42 40t-24.5 60.5t-8 75zM335 282h-154q1 29 5.5 58.5t13.5 53t24 38.5t37 15q39 0 55.5 -45t18.5 -120z" />
    <glyph glyph-name="eacute" unicode="&#xe9;" horiz-adv-x="500" 
d="M184 559h55q65 39 101.5 62.5t54.5 38t22 23.5t4 19q0 17 -11.5 31t-35.5 14q-11 0 -21 -4t-29 -22t-51.5 -56t-88.5 -106zM181 237h287q1 3 1 12v21q0 106 -52.5 164t-151.5 58q-50 0 -92.5 -16t-73.5 -48t-48.5 -80t-17.5 -113q0 -66 19.5 -113.5t53 -78.5t77.5 -44.5
t93 -13.5q57 0 92 11.5t60 30.5l22 56l-12 9q-54 -45 -123 -45q-34 0 -59.5 14.5t-42 40t-24.5 60.5t-8 75zM335 282h-154q1 29 5.5 58.5t13.5 53t24 38.5t37 15q39 0 55.5 -45t18.5 -120z" />
    <glyph glyph-name="ecircumflex" unicode="&#xea;" horiz-adv-x="500" 
d="M250 656l112 -97h56l-121 177h-94l-120 -177h56zM181 237h287q1 3 1 12v21q0 106 -52.5 164t-151.5 58q-50 0 -92.5 -16t-73.5 -48t-48.5 -80t-17.5 -113q0 -66 19.5 -113.5t53 -78.5t77.5 -44.5t93 -13.5q57 0 92 11.5t60 30.5l22 56l-12 9q-54 -45 -123 -45
q-34 0 -59.5 14.5t-42 40t-24.5 60.5t-8 75zM335 282h-154q1 29 5.5 58.5t13.5 53t24 38.5t37 15q39 0 55.5 -45t18.5 -120z" />
    <glyph glyph-name="edieresis" unicode="&#xeb;" horiz-adv-x="500" 
d="M291 633q0 -27 19 -46t46 -19t46 19t19 46t-19 46t-46 19t-46 -19t-19 -46zM80 633q0 -27 19 -46t46 -19t46 19t19 46t-19 46t-46 19t-46 -19t-19 -46zM181 237h287q1 3 1 12v21q0 106 -52.5 164t-151.5 58q-50 0 -92.5 -16t-73.5 -48t-48.5 -80t-17.5 -113
q0 -66 19.5 -113.5t53 -78.5t77.5 -44.5t93 -13.5q57 0 92 11.5t60 30.5l22 56l-12 9q-54 -45 -123 -45q-34 0 -59.5 14.5t-42 40t-24.5 60.5t-8 75zM335 282h-154q1 29 5.5 58.5t13.5 53t24 38.5t37 15q39 0 55.5 -45t18.5 -120z" />
    <glyph glyph-name="igrave" unicode="&#xec;" horiz-adv-x="278" 
d="M166 559h55q-56 68 -88.5 106t-51.5 56t-29 22t-21 4q-24 0 -34 -14t-10 -31q0 -10 4 -19t20.5 -23.5t53 -38t101.5 -62.5zM72 257v-40q0 -61 -1.5 -115t-6.5 -104q14 2 33 2h42h42.5t32.5 -2q-5 50 -6.5 104t-1.5 115v40q0 61 1.5 114.5t6.5 107.5q-28 -5 -75 -5
q-23 0 -42 1.5t-33 3.5q5 -54 6.5 -107.5t1.5 -114.5z" />
    <glyph glyph-name="iacute" unicode="&#xed;" horiz-adv-x="278" 
d="M58 559h55q65 39 101.5 62.5t54.5 38t22 23.5t4 19q0 17 -11.5 31t-35.5 14q-11 0 -21 -4t-29 -22t-51.5 -56t-88.5 -106zM72 257v-40q0 -61 -1.5 -115t-6.5 -104q14 2 33 2h42h42.5t32.5 -2q-5 50 -6.5 104t-1.5 115v40q0 61 1.5 114.5t6.5 107.5q-28 -5 -75 -5
q-23 0 -42 1.5t-33 3.5q5 -54 6.5 -107.5t1.5 -114.5z" />
    <glyph glyph-name="icircumflex" unicode="&#xee;" horiz-adv-x="278" 
d="M139 656l112 -97h56l-121 177h-94l-117 -177h53zM72 257v-40q0 -61 -1.5 -115t-6.5 -104q14 2 33 2h42h42.5t32.5 -2q-5 50 -6.5 104t-1.5 115v40q0 61 1.5 114.5t6.5 107.5q-28 -5 -75 -5q-23 0 -42 1.5t-33 3.5q5 -54 6.5 -107.5t1.5 -114.5z" />
    <glyph glyph-name="idieresis" unicode="&#xef;" horiz-adv-x="278" 
d="M180 633q0 -27 19 -46t46 -19t46 19t19 46t-19 46t-46 19t-46 -19t-19 -46zM-28 633q0 -27 17.5 -46t44.5 -19t46 19t19 46t-19 46t-46 19t-44.5 -19t-17.5 -46zM72 257v-40q0 -61 -1.5 -115t-6.5 -104q14 2 33 2h42h42.5t32.5 -2q-5 50 -6.5 104t-1.5 115v40
q0 61 1.5 114.5t6.5 107.5q-28 -5 -75 -5q-23 0 -42 1.5t-33 3.5q5 -54 6.5 -107.5t1.5 -114.5z" />
    <glyph glyph-name="eth" unicode="&#xf0;" 
d="M39 225q0 -67 21.5 -113t56.5 -74.5t78.5 -40.5t88.5 -12q54 0 99 17t77.5 51.5t50.5 83.5t18 110q0 60 -17.5 111t-48.5 96t-73.5 87t-92.5 84l124 31q-15 21 -24 42q-28 -9 -61 -19.5t-73 -22.5q-35 26 -70.5 51t-72.5 48q-24 -9 -48.5 -16t-48.5 -13q40 -23 74 -49
t64 -52q-38 -12 -74.5 -23t-74.5 -19q8 -11 15.5 -22t12.5 -22q45 18 81 31.5t71 24.5q12 -9 26 -23t27.5 -30.5t24.5 -33.5t17 -30q-7 1 -13 1.5t-13 0.5q-37 0 -76.5 -15t-72 -46t-53 -79t-20.5 -115zM381 262q0 -235 -96 -235q-28 0 -46.5 15t-30 41.5t-16.5 62.5t-5 78
q0 112 26.5 163.5t72.5 51.5q51 0 73 -46t22 -131z" />
    <glyph glyph-name="ntilde" unicode="&#xf1;" 
d="M96 579h43q11 28 23.5 37t29.5 9q16 0 33.5 -7t36.5 -16t39 -16t42 -7q27 0 47.5 10.5t35 28t23 40t12.5 47.5h-43q-11 -28 -23.5 -37t-29.5 -9q-16 0 -33.5 7t-36.5 16t-39 16t-42 7q-27 0 -47.5 -10.5t-35 -28t-23 -40t-12.5 -47.5zM193 404l4 75q-20 -2 -37.5 -3.5
t-35.5 -1.5t-35.5 1.5t-35.5 3.5q5 -54 6.5 -107.5t1.5 -114.5v-40q0 -61 -1.5 -115t-6.5 -104q14 2 33 2h42h42.5t32.5 -2q-5 50 -6.5 104t-1.5 115v40q0 69 21 108t66 39q39 0 60.5 -29.5t21.5 -92.5q0 -91 -2 -161.5t-9 -122.5q13 2 33 2h42h42t33 -2q-2 35 -3.5 72.5
t-1.5 69.5q0 39 2 78t2 90q0 97 -40.5 140.5t-115.5 43.5q-48 0 -85.5 -23t-65.5 -65h-2z" />
    <glyph glyph-name="ograve" unicode="&#xf2;" 
d="M305 559h55q-56 68 -88.5 106t-51.5 56t-29 22t-21 4q-24 0 -35.5 -14t-11.5 -31q0 -10 4 -19t22 -23.5t54.5 -38t101.5 -62.5zM375 262q0 -235 -96 -235q-28 0 -46.5 15t-30 41.5t-16.5 62.5t-5 78q0 115 26.5 169t72.5 54q51 0 73 -48.5t22 -136.5zM33 225
q0 -67 21.5 -113t56.5 -74.5t78.5 -40.5t88.5 -12q54 0 99 17t77.5 51.5t50.5 83.5t18 110q0 113 -64 179t-181 66q-47 0 -91.5 -16.5t-78.5 -50t-54.5 -83.5t-20.5 -117z" />
    <glyph glyph-name="oacute" unicode="&#xf3;" 
d="M197 559h55q65 39 101.5 62.5t54.5 38t22 23.5t4 19q0 17 -11.5 31t-35.5 14q-11 0 -21 -4t-29 -22t-51.5 -56t-88.5 -106zM375 262q0 -235 -96 -235q-28 0 -46.5 15t-30 41.5t-16.5 62.5t-5 78q0 115 26.5 169t72.5 54q51 0 73 -48.5t22 -136.5zM33 225q0 -67 21.5 -113
t56.5 -74.5t78.5 -40.5t88.5 -12q54 0 99 17t77.5 51.5t50.5 83.5t18 110q0 113 -64 179t-181 66q-47 0 -91.5 -16.5t-78.5 -50t-54.5 -83.5t-20.5 -117z" />
    <glyph glyph-name="ocircumflex" unicode="&#xf4;" 
d="M278 656l112 -97h56l-121 177h-94l-120 -177h56zM375 262q0 -235 -96 -235q-28 0 -46.5 15t-30 41.5t-16.5 62.5t-5 78q0 115 26.5 169t72.5 54q51 0 73 -48.5t22 -136.5zM33 225q0 -67 21.5 -113t56.5 -74.5t78.5 -40.5t88.5 -12q54 0 99 17t77.5 51.5t50.5 83.5t18 110
q0 113 -64 179t-181 66q-47 0 -91.5 -16.5t-78.5 -50t-54.5 -83.5t-20.5 -117z" />
    <glyph glyph-name="otilde" unicode="&#xf5;" 
d="M96 579h43q11 28 23.5 37t29.5 9q16 0 33.5 -7t36.5 -16t39 -16t42 -7q27 0 47.5 10.5t35 28t23 40t12.5 47.5h-43q-11 -28 -23.5 -37t-29.5 -9q-16 0 -33.5 7t-36.5 16t-39 16t-42 7q-27 0 -47.5 -10.5t-35 -28t-23 -40t-12.5 -47.5zM375 262q0 -235 -96 -235
q-28 0 -46.5 15t-30 41.5t-16.5 62.5t-5 78q0 115 26.5 169t72.5 54q51 0 73 -48.5t22 -136.5zM33 225q0 -67 21.5 -113t56.5 -74.5t78.5 -40.5t88.5 -12q54 0 99 17t77.5 51.5t50.5 83.5t18 110q0 113 -64 179t-181 66q-47 0 -91.5 -16.5t-78.5 -50t-54.5 -83.5t-20.5 -117
z" />
    <glyph glyph-name="odieresis" unicode="&#xf6;" 
d="M319 633q0 -27 19 -46t46 -19t46 19t19 46t-19 46t-46 19t-46 -19t-19 -46zM108 633q0 -27 19 -46t46 -19t46 19t19 46t-19 46t-46 19t-46 -19t-19 -46zM375 262q0 -235 -96 -235q-28 0 -46.5 15t-30 41.5t-16.5 62.5t-5 78q0 115 26.5 169t72.5 54q51 0 73 -48.5
t22 -136.5zM33 225q0 -67 21.5 -113t56.5 -74.5t78.5 -40.5t88.5 -12q54 0 99 17t77.5 51.5t50.5 83.5t18 110q0 113 -64 179t-181 66q-47 0 -91.5 -16.5t-78.5 -50t-54.5 -83.5t-20.5 -117z" />
    <glyph glyph-name="divide" unicode="&#xf7;" horiz-adv-x="606" 
d="M221 461q0 -34 24 -58t58 -24t58 24t24 58t-24 58t-58 24t-58 -24t-24 -58zM221 45q0 -34 24 -56.5t58 -22.5t58 22.5t24 56.5t-24 58t-58 24t-58 -24t-24 -58zM50 300v-94h506v94h-506z" />
    <glyph glyph-name="oslash" unicode="&#xf8;" 
d="M509 529l-74 -83q-62 46 -157 46q-47 0 -91.5 -16.5t-78.5 -50t-54.5 -83.5t-20.5 -117q0 -55 15 -96t41 -70l-76 -82q10 -6 18 -12.5t16 -17.5l76 82q33 -25 73 -34.5t82 -9.5q54 0 99 17t77.5 51.5t50.5 83.5t18 110q0 106 -55 168l75 84q-10 6 -18 12.5t-16 17.5z
M364 366l-180 -201q-3 29 -3 59q0 115 26.5 169t72.5 54q32 0 52.5 -21t31.5 -60zM194 108l179 201q1 -11 1.5 -22.5t0.5 -24.5q0 -235 -96 -235q-34 0 -54.5 21.5t-30.5 59.5z" />
    <glyph glyph-name="ugrave" unicode="&#xf9;" 
d="M305 559h55q-56 68 -88.5 106t-51.5 56t-29 22t-21 4q-24 0 -35.5 -14t-11.5 -31q0 -10 4 -19t22 -23.5t54.5 -38t101.5 -62.5zM363 70l-4 -72q20 2 37.5 2h35.5h35.5t35.5 -2q-5 50 -6.5 104t-1.5 115v40q0 61 1.5 114.5t6.5 107.5q-14 -2 -33 -3.5t-42 -1.5
q-47 0 -75 5q5 -54 6.5 -107.5t1.5 -114.5v-40q0 -69 -21 -108t-66 -39q-39 0 -60.5 29.5t-21.5 92.5q0 91 2 162t9 125q-13 -2 -33 -3.5t-42 -1.5t-42 1.5t-33 3.5q2 -38 3.5 -75.5t1.5 -69.5q0 -39 -2 -78t-2 -90q0 -97 40.5 -139t115.5 -42q48 0 85.5 21.5t65.5 63.5h2z
" />
    <glyph glyph-name="uacute" unicode="&#xfa;" 
d="M197 559h55q65 39 101.5 62.5t54.5 38t22 23.5t4 19q0 17 -11.5 31t-35.5 14q-11 0 -21 -4t-29 -22t-51.5 -56t-88.5 -106zM363 70l-4 -72q20 2 37.5 2h35.5h35.5t35.5 -2q-5 50 -6.5 104t-1.5 115v40q0 61 1.5 114.5t6.5 107.5q-14 -2 -33 -3.5t-42 -1.5q-47 0 -75 5
q5 -54 6.5 -107.5t1.5 -114.5v-40q0 -69 -21 -108t-66 -39q-39 0 -60.5 29.5t-21.5 92.5q0 91 2 162t9 125q-13 -2 -33 -3.5t-42 -1.5t-42 1.5t-33 3.5q2 -38 3.5 -75.5t1.5 -69.5q0 -39 -2 -78t-2 -90q0 -97 40.5 -139t115.5 -42q48 0 85.5 21.5t65.5 63.5h2z" />
    <glyph glyph-name="ucircumflex" unicode="&#xfb;" 
d="M278 656l112 -97h56l-121 177h-94l-120 -177h56zM363 70l-4 -72q20 2 37.5 2h35.5h35.5t35.5 -2q-5 50 -6.5 104t-1.5 115v40q0 61 1.5 114.5t6.5 107.5q-14 -2 -33 -3.5t-42 -1.5q-47 0 -75 5q5 -54 6.5 -107.5t1.5 -114.5v-40q0 -69 -21 -108t-66 -39q-39 0 -60.5 29.5
t-21.5 92.5q0 91 2 162t9 125q-13 -2 -33 -3.5t-42 -1.5t-42 1.5t-33 3.5q2 -38 3.5 -75.5t1.5 -69.5q0 -39 -2 -78t-2 -90q0 -97 40.5 -139t115.5 -42q48 0 85.5 21.5t65.5 63.5h2z" />
    <glyph glyph-name="udieresis" unicode="&#xfc;" 
d="M319 633q0 -27 19 -46t46 -19t46 19t19 46t-19 46t-46 19t-46 -19t-19 -46zM108 633q0 -27 19 -46t46 -19t46 19t19 46t-19 46t-46 19t-46 -19t-19 -46zM363 70l-4 -72q20 2 37.5 2h35.5h35.5t35.5 -2q-5 50 -6.5 104t-1.5 115v40q0 61 1.5 114.5t6.5 107.5
q-14 -2 -33 -3.5t-42 -1.5q-47 0 -75 5q5 -54 6.5 -107.5t1.5 -114.5v-40q0 -69 -21 -108t-66 -39q-39 0 -60.5 29.5t-21.5 92.5q0 91 2 162t9 125q-13 -2 -33 -3.5t-42 -1.5t-42 1.5t-33 3.5q2 -38 3.5 -75.5t1.5 -69.5q0 -39 -2 -78t-2 -90q0 -97 40.5 -139t115.5 -42
q48 0 85.5 21.5t65.5 63.5h2z" />
    <glyph glyph-name="yacute" unicode="&#xfd;" horiz-adv-x="500" 
d="M169 559h55q65 39 101.5 62.5t54.5 38t22 23.5t4 19q0 17 -11.5 31t-35.5 14q-11 0 -21 -4t-29 -22t-51.5 -56t-88.5 -106zM287 165q-32 79 -61.5 157t-58.5 157q-19 -2 -37 -3.5t-37 -1.5t-37.5 1.5t-37.5 3.5q12 -30 35.5 -87t52 -126t58 -141t53.5 -129
q-30 -66 -62 -130.5t-65 -130.5q11 2 21 3.5t21 1.5t21 -1.5t21 -3.5q23 62 53.5 138t63 153.5t64.5 153.5t58.5 138.5t45 105t23.5 55.5q-12 -2 -22 -3.5t-20 -1.5t-19.5 1.5t-20.5 3.5q-13 -41 -25.5 -78t-26 -74t-28.5 -76.5t-33 -85.5z" />
    <glyph glyph-name="thorn" unicode="&#xfe;" 
d="M329 492q-43 0 -79 -22t-53 -64h-2q0 98 2 180t6 166q-13 -2 -33 -3.5t-42 -1.5t-42 1.5t-33 3.5q4 -84 6 -166t2 -180v-273v-55q0 -49 -0.5 -92t-1.5 -85t-2.5 -83t-3.5 -83q13 2 33 3.5t42 1.5t42 -1.5t33 -3.5q-2 13 -3.5 39t-2.5 59t-1.5 69.5t-0.5 71.5v81h2
q18 -36 51 -53t78 -17q37 0 72.5 13t63 44.5t44.5 81.5t17 121q0 65 -16 112t-43 77t-62 44t-73 14zM375 242q0 -100 -25 -147t-68 -47q-45 0 -68.5 43.5t-23.5 134.5q0 56 8 95t21.5 63t30.5 35t36 11q40 0 64.5 -44.5t24.5 -143.5z" />
    <glyph glyph-name="ydieresis" unicode="&#xff;" horiz-adv-x="500" 
d="M301 633q0 -27 19 -46t46 -19t46 19t19 46t-19 46t-46 19t-46 -19t-19 -46zM90 633q0 -27 19 -46t46 -19t46 19t19 46t-19 46t-46 19t-46 -19t-19 -46zM287 165q-32 79 -61.5 157t-58.5 157q-19 -2 -37 -3.5t-37 -1.5t-37.5 1.5t-37.5 3.5q12 -30 35.5 -87t52 -126
t58 -141t53.5 -129q-30 -66 -62 -130.5t-65 -130.5q11 2 21 3.5t21 1.5t21 -1.5t21 -3.5q23 62 53.5 138t63 153.5t64.5 153.5t58.5 138.5t45 105t23.5 55.5q-12 -2 -22 -3.5t-20 -1.5t-19.5 1.5t-20.5 3.5q-13 -41 -25.5 -78t-26 -74t-28.5 -76.5t-33 -85.5z" />
    <glyph glyph-name="dotlessi" unicode="&#x131;" horiz-adv-x="278" 
d="M72 257v-40q0 -61 -1.5 -115t-6.5 -104q14 2 33 2h42h42.5t32.5 -2q-5 50 -6.5 104t-1.5 115v40q0 61 1.5 114.5t6.5 107.5q-28 -5 -75 -5q-23 0 -42 1.5t-33 3.5q5 -54 6.5 -107.5t1.5 -114.5z" />
    <glyph glyph-name="Lslash" unicode="&#x141;" horiz-adv-x="500" 
d="M-17 284l29 -44q20 11 39 20.5t38 18.5v-7q0 -83 -2 -147.5t-6 -126.5q8 1 19.5 1.5t34 0.5h59.5h99q69 0 108.5 -0.5t66.5 -1.5q-2 6 -3 15t-1 25t1 25t3 20q-58 -7 -115 -10t-114 -3q-1 39 -1.5 92t-0.5 110v74q32 15 66 29.5t70 28.5l-28 50q-25 -14 -55 -28t-53 -23
v5q0 83 2 147.5t6 129.5q-17 -2 -37 -3.5t-45 -1.5t-45 1.5t-37 3.5q4 -65 6 -129.5t2 -147.5v-78q-21 -11 -49 -22t-57 -24z" />
    <glyph glyph-name="lslash" unicode="&#x142;" horiz-adv-x="278" 
d="M284 492l-77 -38q0 83 2 153.5t5 144.5q-13 -2 -33 -3.5t-42 -1.5t-42 1.5t-33 3.5q4 -91 6 -179.5t2 -179.5q-25 -12 -48.5 -22t-47.5 -20q9 -10 16 -19.5t10 -20.5l70 31q0 -88 -2 -173t-6 -171q13 2 33 2h42h42t33 -2q-4 81 -6 163t-2 180v62l106 46q-9 10 -17.5 21.5
t-10.5 21.5z" />
    <glyph glyph-name="OE" unicode="&#x152;" horiz-adv-x="1000" 
d="M28 335q0 -82 27 -147.5t73.5 -111t108 -68.5t129.5 -23q28 0 59 5t61.5 16.5t59 33t52.5 53.5l2 -2q-2 -26 -4 -49t-3 -44q20 2 68 2h136q69 0 108.5 -0.5t66.5 -1.5q-2 6 -3 15t-1 25t1 25t3 20q-58 -7 -115 -10t-114 -3q-3 60 -3 125q0 32 0.5 64t0.5 64q113 0 227 -9
q-2 16 -3.5 24.5t-1.5 16.5q0 10 1 19t4 26q-57 -3 -109.5 -5t-117.5 -3q0 55 0.5 109t4.5 109q11 0 37 -1t58.5 -3t67 -4t63.5 -4q-2 11 -3 20t-1 25q0 26 4 42q-20 -2 -77.5 -3.5t-131.5 -1.5q-42 0 -81 2t-81 3q1 -24 1.5 -46.5t2.5 -45.5l-2 -2q-14 20 -35 39.5
t-48.5 34.5t-62 24t-76.5 9q-71 0 -135 -24.5t-112.5 -71t-77 -114t-28.5 -153.5zM602 358q0 -78 -17.5 -137.5t-47 -100t-67.5 -61t-79 -20.5q-40 0 -76 18.5t-63.5 55t-43.5 90t-16 122.5q0 77 15.5 136t43 99t65 60.5t81.5 20.5q37 0 73.5 -18t66 -53t47.5 -88t18 -124z
" />
    <glyph glyph-name="oe" unicode="&#x153;" horiz-adv-x="889" 
d="M536 237h313q1 3 1 12v21q0 106 -52.5 164t-151.5 58q-51 0 -94.5 -18.5t-78.5 -63.5q-40 45 -89 63.5t-106 18.5q-47 0 -91.5 -16.5t-78.5 -50t-54.5 -83.5t-20.5 -117t21.5 -113t56.5 -74.5t78.5 -40.5t88.5 -12q60 0 107 20t79 60q34 -42 83.5 -61t109.5 -19
q57 0 92 11.5t60 30.5l22 56l-12 9q-54 -45 -123 -45q-40 0 -70 14.5t-50 40t-30 60.5t-10 75zM716 282h-180q0 78 24 121.5t75 43.5q36 0 58.5 -33t22.5 -87v-45zM402 242q0 -112 -28.5 -165.5t-79.5 -53.5q-58 0 -85.5 52.5t-27.5 148.5q0 114 33 168.5t81 54.5
q23 0 42.5 -11.5t33.5 -36t22.5 -63.5t8.5 -94z" />
    <glyph glyph-name="Scaron" unicode="&#x160;" horiz-adv-x="500" 
d="M372 902l-111 -97l-112 97h-56l121 -177h94l120 177h-56zM384 550h15q10 33 16.5 54.5t15.5 44.5q-29 23 -69.5 36t-94.5 13q-45 0 -85.5 -14t-71.5 -41t-49.5 -67t-18.5 -92q0 -57 22 -93.5t55 -61.5t72 -42.5t72 -36t55 -42.5t22 -62q0 -42 -28.5 -72t-88.5 -30
q-30 0 -54 8.5t-41 23.5t-28 34.5t-15 41.5h-19q-5 -34 -12 -63t-17 -64q22 -17 64.5 -28.5t96.5 -11.5q60 0 108.5 15.5t83.5 45t54 71t19 91.5q0 57 -22.5 93.5t-56.5 62t-73 43t-73 36.5t-56.5 42.5t-22.5 60.5q0 36 29 63t75 27q89 0 121 -86z" />
    <glyph glyph-name="scaron" unicode="&#x161;" horiz-adv-x="389" 
d="M306 736l-111 -97l-112 97h-56l121 -177h94l120 177h-56zM69 121h-25q-3 -48 -15 -96q21 -14 57 -27t81 -13q38 0 72.5 9t61.5 29.5t43 52t16 75.5t-17.5 72t-43.5 45.5t-57 28.5t-57 22t-43.5 25.5t-17.5 38.5q0 26 20.5 42t50.5 16q24 0 41 -8.5t29 -21.5t19 -27.5
t10 -26.5h28q3 22 9 45t15 43q-34 23 -66.5 35t-74.5 12q-31 0 -62.5 -9.5t-56.5 -29t-40.5 -50t-15.5 -72.5q0 -44 17 -72t42.5 -46.5t55.5 -30.5t55.5 -23.5t42.5 -25.5t17 -37q0 -21 -19 -39t-54 -18q-26 0 -45.5 7t-33.5 18.5t-23.5 26t-15.5 30.5z" />
    <glyph glyph-name="Ydieresis" unicode="&#x178;" horiz-adv-x="611" 
d="M371 799q0 -27 19 -46t46 -19t46 19t19 46t-19 46t-46 19t-46 -19t-19 -46zM160 799q0 -27 19 -46t46 -19t46 19t19 46t-19 46t-46 19t-46 -19t-19 -46zM353 385h-2q-11 17 -29 52t-39 78t-42.5 88t-38.5 82q-23 -2 -44.5 -3.5t-44.5 -1.5t-45 1.5t-45 3.5
q12 -21 37.5 -68t56 -105t63 -119.5t57.5 -111.5q1 -23 1.5 -46.5t0.5 -46.5q0 -48 -5 -96t-7 -94q21 2 42.5 2h42.5h42.5t42.5 -2q-7 55 -8.5 105t-1.5 101q0 25 1 49.5t1 48.5q24 47 53.5 102.5t58.5 108.5t54.5 98.5t42.5 73.5q-13 -2 -24.5 -3.5t-23.5 -1.5t-23.5 1.5
t-22.5 3.5q-17 -37 -35 -77.5t-37 -80.5t-39 -76.5t-40 -65.5z" />
    <glyph glyph-name="Zcaron" unicode="&#x17d;" horiz-adv-x="611" 
d="M417 902l-111 -97l-112 97h-56l121 -177h94l120 177h-56zM12 12v-14q29 1 110 1.5t202 0.5h128.5t121.5 -2q-1 8 -3 17.5t-2 20.5t2 21t3 21q-27 -2 -55.5 -3.5t-68.5 -2.5t-94 -1.5t-132 -0.5v2q85 151 171 298t180 297v18q-42 -1 -74 -2t-60 -1.5t-54.5 -1t-57.5 -0.5
q-35 0 -65.5 1t-62 1.5t-67 1.5t-81.5 1q2 -11 3.5 -21t1.5 -21t-1.5 -21t-3.5 -21q75 7 155 8t158 1l1 -2q-41 -75 -87.5 -156t-93.5 -160t-92 -151t-82 -129z" />
    <glyph glyph-name="zcaron" unicode="&#x17e;" horiz-adv-x="500" 
d="M362 736l-111 -97l-112 97h-56l121 -177h94l120 177h-56zM30 36v-38q7 0 21 0.5t38.5 1t62 0.5h92.5h76h43h35.5t32 -0.5t31.5 -1.5q-3 13 -3 32q0 16 3 34q-36 -4 -64 -6t-51 -3.5t-43 -2t-41 -0.5h-58q61 99 128 194.5t137 192.5v40q-18 -2 -40.5 -3.5t-50.5 -1.5h-111
h-109q-25 0 -49 1.5t-49 3.5q4 -15 4 -34t-4 -35q43 4 74 6.5t56.5 3.5t49.5 1.5t53 0.5q-66 -99 -130.5 -194t-133.5 -192z" />
    <glyph glyph-name="florin" unicode="&#x192;" 
d="M444 396l-107 -4l3 21q7 62 13 98.5t13 55.5t16.5 24.5t24.5 5.5q16 0 31 -9t41 -29l12 7l7.5 52.5t9.5 50.5q-16 3 -45 3q-27 0 -65.5 -13t-76.5 -44.5t-69 -85.5t-43 -137l-110 2q-1 -14 -3.5 -27.5t-6.5 -26.5l111 4q-8 -41 -16 -93t-15.5 -106.5t-15 -105.5
t-14.5 -92q-8 -46 -20 -62t-28 -16q-11 0 -22.5 4t-22.5 9.5t-20.5 11.5t-15.5 10l-10 -4q0 -26 -3 -52t-8 -52q4 0 12 -1t25 -1q48 0 96 28t81 79q19 28 34 54t28 64t25.5 97.5t26.5 153.5l12 74l103 -3q2 13 5 27t7 28z" />
    <glyph glyph-name="circumflex" unicode="&#x2c6;" horiz-adv-x="333" 
d="M166 656l112 -97h56l-121 177h-94l-119 -177h55z" />
    <glyph glyph-name="caron" unicode="&#x2c7;" horiz-adv-x="333" 
d="M278 736l-111 -97l-112 97h-55l120 -177h94l120 177h-56z" />
    <glyph glyph-name="breve" unicode="&#x2d8;" horiz-adv-x="333" 
d="M317 724h-44q-18 -90 -106 -90q-54 0 -79 26t-28 64h-44q0 -45 12.5 -76t32.5 -51t46 -29t53 -9q42 0 71.5 13t48 35.5t27.5 52.5t10 64z" />
    <glyph glyph-name="dotaccent" unicode="&#x2d9;" horiz-adv-x="333" 
d="M102 633q0 -27 19 -46t46 -19t46 19t19 46t-19 46t-46 19t-46 -19t-19 -46z" />
    <glyph glyph-name="ring" unicode="&#x2da;" horiz-adv-x="333" 
d="M224 647q0 -24 -16.5 -40.5t-40.5 -16.5q-25 0 -41 16.5t-16 40.5t16 40.5t41 16.5q24 0 40.5 -16.5t16.5 -40.5zM59 647q0 -22 8.5 -42t23 -34.5t34.5 -23t42 -8.5t41.5 8.5t34.5 23t23.5 34.5t8.5 42q0 23 -8.5 42.5t-23.5 34t-34.5 23t-41.5 8.5t-42 -8.5t-34.5 -23
t-23 -34t-8.5 -42.5z" />
    <glyph glyph-name="ogonek" unicode="&#x2db;" horiz-adv-x="333" 
d="M259 5h-45q-57 -23 -91.5 -59.5t-34.5 -73.5q0 -45 27.5 -67t69.5 -22q30 0 61 14.5t59 40.5l-26 26q-9 -8 -21.5 -13.5t-31.5 -5.5q-21 0 -35.5 16.5t-14.5 42.5q0 29 19 52.5t64 48.5z" />
    <glyph glyph-name="tilde" unicode="&#x2dc;" horiz-adv-x="333" 
d="M-13 579h40q11 28 23.5 37t29.5 9q16 0 33.5 -7t36.5 -16t39 -16t42 -7q27 0 47.5 10.5t35 28t23 40t12.5 47.5h-43q-11 -28 -23.5 -37t-29.5 -9q-16 0 -33.5 7t-36.5 16t-39 16t-42 7q-28 0 -48 -10.5t-34.5 -28t-21.5 -40t-11 -47.5z" />
    <glyph glyph-name="hungarumlaut" unicode="&#x2dd;" horiz-adv-x="333" 
d="M156 559h55q65 39 101.5 62.5t54.5 38t22 23.5t4 19q0 17 -11.5 31t-35.5 14q-11 0 -21 -4t-29 -22t-51.5 -56t-88.5 -106zM-53 559h53q65 39 101 62.5t54 38t22 23.5t4 19q0 17 -11.5 31t-35.5 14q-10 0 -20.5 -4t-29.5 -22t-51.5 -56t-85.5 -106z" />
    <glyph glyph-name="gravecmb" unicode="&#x300;" horiz-adv-x="0" 
d="M-137 559h55q-56 68 -88.5 106t-51.5 56t-29 22t-21 4q-24 0 -35.5 -14t-11.5 -31q0 -10 4 -19t22 -23.5t54.5 -38t101.5 -62.5z" />
    <glyph glyph-name="acutecmb" unicode="&#x301;" horiz-adv-x="0" 
d="M-245 559h55q65 39 101.5 62.5t54.5 38t22 23.5t4 19q0 17 -11.5 31t-35.5 14q-11 0 -21 -4t-29 -22t-51.5 -56t-88.5 -106z" />
    <glyph glyph-name="circumflexcmb" unicode="&#x302;" horiz-adv-x="0" 
d="M-164 656l112 -97h56l-121 177h-94l-119 -177h55z" />
    <glyph glyph-name="tildecmb" unicode="&#x303;" horiz-adv-x="0" 
d="M-343 579h40q11 28 23.5 37t29.5 9q16 0 33.5 -7t36.5 -16t39 -16t42 -7q27 0 47.5 10.5t35 28t23 40t12.5 47.5h-43q-11 -28 -23.5 -37t-29.5 -9q-16 0 -33.5 7t-36.5 16t-39 16t-42 7q-28 0 -48 -10.5t-34.5 -28t-21.5 -40t-11 -47.5z" />
    <glyph glyph-name="macroncmb" unicode="&#x304;" horiz-adv-x="0" 
d="M-310 667v-69h293v69h-293z" />
    <glyph glyph-name="brevecmb" unicode="&#x306;" horiz-adv-x="0" 
d="M-13 724h-44q-18 -90 -106 -90q-54 0 -79 26t-28 64h-44q0 -45 12.5 -76t32.5 -51t46 -29t53 -9q42 0 71.5 13t48 35.5t27.5 52.5t10 64z" />
    <glyph glyph-name="dotaccentcmb" unicode="&#x307;" horiz-adv-x="0" 
d="M-228 633q0 -27 19 -46t46 -19t46 19t19 46t-19 46t-46 19t-46 -19t-19 -46z" />
    <glyph glyph-name="dieresiscmb" unicode="&#x308;" horiz-adv-x="0" 
d="M-123 633q0 -27 19 -46t46 -19t46 19t19 46t-19 46t-46 19t-46 -19t-19 -46zM-331 633q0 -27 17.5 -46t44.5 -19t46 19t19 46t-19 46t-46 19t-44.5 -19t-17.5 -46z" />
    <glyph glyph-name="ringcmb" unicode="&#x30a;" horiz-adv-x="0" 
d="M-106 647q0 -24 -16.5 -40.5t-40.5 -16.5q-25 0 -41 16.5t-16 40.5t16 40.5t41 16.5q24 0 40.5 -16.5t16.5 -40.5zM-271 647q0 -22 8.5 -42t23 -34.5t34.5 -23t42 -8.5t41.5 8.5t34.5 23t23.5 34.5t8.5 42q0 23 -8.5 42.5t-23.5 34t-34.5 23t-41.5 8.5t-42 -8.5
t-34.5 -23t-23 -34t-8.5 -42.5z" />
    <glyph glyph-name="hungarumlautcmb" unicode="&#x30b;" horiz-adv-x="0" 
d="M-174 559h55q65 39 101.5 62.5t54.5 38t22 23.5t4 19q0 17 -11.5 31t-35.5 14q-11 0 -21 -4t-29 -22t-51.5 -56t-88.5 -106zM-383 559h53q65 39 101 62.5t54 38t22 23.5t4 19q0 17 -11.5 31t-35.5 14q-10 0 -20.5 -4t-29.5 -22t-51.5 -56t-85.5 -106z" />
    <glyph glyph-name="caroncmb" unicode="&#x30c;" horiz-adv-x="0" 
d="M-13 724h-44q-18 -90 -106 -90q-54 0 -79 26t-28 64h-44q0 -45 12.5 -76t32.5 -51t46 -29t53 -9q42 0 71.5 13t48 35.5t27.5 52.5t10 64z" />
    <glyph glyph-name="cedillacmb" unicode="&#x327;" horiz-adv-x="0" 
d="M-262 -90l11 -8q9 4 28 4q46 0 46 -37q0 -20 -15.5 -30.5t-42.5 -10.5q-19 0 -33.5 4.5t-25.5 9.5l-16 -37q4 -2 14.5 -5t23 -6t26 -5t24.5 -2q64 0 101.5 22.5t37.5 64.5q0 31 -21 52t-69 21q-18 0 -32 -5l28 61h-42z" />
    <glyph glyph-name="ogonekcmb" unicode="&#x328;" horiz-adv-x="0" 
d="M-71 5h-45q-57 -23 -91.5 -59.5t-34.5 -73.5q0 -45 27.5 -67t69.5 -22q30 0 61 14.5t59 40.5l-26 26q-9 -8 -21.5 -13.5t-31.5 -5.5q-21 0 -35.5 16.5t-14.5 42.5q0 29 19 52.5t64 48.5z" />
    <glyph glyph-name="soliduslongoverlaycmb" unicode="&#x338;" horiz-adv-x="0" 
d="M-90 700l-286 -717q11 1 21 1.5t21 0.5t21 -0.5t20 -1.5l286 717q-11 -1 -21 -1.5t-21 -0.5t-21 0.5t-20 1.5z" />
    <glyph glyph-name="Omegagreek" unicode="&#x3a9;" horiz-adv-x="768" 
d="M330 0l-15 142q-44 15 -66 37q-36 31 -55.5 85t-19.5 126q0 125 63 195q50 56 150 56q96 0 152 -63t56 -189q0 -112 -51 -183q-31 -42 -90 -64l-16 -142h296v163h-17q-5 -19 -10 -31t-12.5 -18.5t-19 -8.5t-29.5 -2h-148v14q77 23 121 57.5t69 93.5q26 61 26 120
q0 76 -40 143q-38 69 -115 107q-73 37 -175 37q-100 0 -175.5 -37.5t-115.5 -106.5q-39 -69 -39 -143q0 -62 25.5 -120t69.5 -94q44 -35 122 -57v-14h-148q-18 0 -29.5 2t-19 8.5t-13 18.5t-10.5 31h-16v-163h295z" />
    <glyph glyph-name="pi" unicode="&#x3c0;" horiz-adv-x="505" 
d="M485 447h-312q-63 0 -84 -10q-23 -10 -46 -44q-22 -34 -37 -86h18q19 33 40 51t61 18h34q-5 -61 -12 -105.5t-17 -72.5q-10 -29 -24.5 -55.5t-33.5 -52.5q-26 -35 -26 -56t15.5 -32.5t37.5 -11.5q31 0 47 20q18 24 32 106q7 42 13.5 105.5t11.5 154.5h103l-13 -141
q-5 -55 -7.5 -91t-2.5 -53q0 -52 26 -76.5t69 -24.5q91 0 108 132h-17q-9 -59 -56 -59q-21 0 -38 15q-16 15 -16 83q0 28 3 67l10 148h113v71z" />
    <glyph glyph-name="endash" unicode="&#x2013;" horiz-adv-x="500" 
d="M0 260v-82h500v82h-500z" />
    <glyph glyph-name="emdash" unicode="&#x2014;" horiz-adv-x="1000" 
d="M0 260v-82h1000v82h-1000z" />
    <glyph glyph-name="quoteleft" unicode="&#x2018;" horiz-adv-x="278" 
d="M242 698l-25 10q-42 -58 -71.5 -99.5t-50 -70.5t-32 -48t-18 -30.5t-8 -18.5t-1.5 -13q0 -15 6.5 -27t17 -19.5t23 -11.5t24.5 -4q20 0 34 9.5t28.5 44t31 100.5t41.5 178z" />
    <glyph glyph-name="quoteright" unicode="&#x2019;" horiz-adv-x="278" 
d="M36 376l25 -10q42 58 71.5 99.5t50 70.5t32 48t18 30.5t8 18.5t1.5 13q0 15 -6.5 27t-17 19.5t-23 11.5t-24.5 4q-20 0 -34 -10t-28 -44t-31 -100t-42 -178z" />
    <glyph glyph-name="quotesinglbase" unicode="&#x201a;" horiz-adv-x="278" 
d="M21 -182l25 -10q63 87 99 138t54.5 78.5t23 39.5t4.5 21q0 15 -6.5 27t-17 19.5t-23 11.5t-24.5 4q-20 0 -34 -10t-28 -44t-31 -98.5t-42 -176.5z" />
    <glyph glyph-name="quotedblleft" unicode="&#x201c;" horiz-adv-x="500" 
d="M238 698l-25 10q-42 -58 -71.5 -99.5t-50 -70.5t-32 -48t-18 -30.5t-8 -18.5t-1.5 -13q0 -15 6.5 -27t17 -19.5t23 -11.5t24.5 -4q20 0 34 9.5t28.5 44t31 100.5t41.5 178zM445 698l-25 10q-42 -58 -71.5 -99.5t-50 -70.5t-32 -48t-18 -30.5t-8 -18.5t-1.5 -13
q0 -15 6.5 -27t17 -19.5t23 -11.5t24.5 -4q20 0 34 9.5t28.5 44t31 100.5t41.5 178z" />
    <glyph glyph-name="quotedblright" unicode="&#x201d;" horiz-adv-x="500" 
d="M272 376l25 -10q42 58 71.5 99.5t50 70.5t32 48t18 30.5t8 18.5t1.5 13q0 15 -6.5 27t-17 19.5t-23 11.5t-24.5 4q-20 0 -34 -10t-28 -44t-31 -100t-42 -178zM65 376l25 -10q42 58 71.5 99.5t50 70.5t32 48t18 30.5t8 18.5t1.5 13q0 15 -6.5 27t-17 19.5t-23 11.5
t-24.5 4q-20 0 -34 -10t-28 -44t-31 -100t-42 -178z" />
    <glyph glyph-name="quotedblbase" unicode="&#x201e;" horiz-adv-x="500" 
d="M228 -182l25 -10q63 87 99 138t54.5 78.5t23 39.5t4.5 21q0 15 -6.5 27t-17 19.5t-23 11.5t-24.5 4q-20 0 -34 -10t-28 -44t-31 -98.5t-42 -176.5zM21 -182l25 -10q63 87 99 138t54.5 78.5t23 39.5t4.5 21q0 15 -6.5 27t-17 19.5t-23 11.5t-24.5 4q-20 0 -34 -10t-28 -44
t-31 -98.5t-42 -176.5z" />
    <glyph glyph-name="dagger" unicode="&#x2020;" 
d="M344 685q-17 -2 -33 -3.5t-33 -1.5t-33 1.5t-33 3.5q2 -55 5 -109.5t3 -109.5q-33 0 -76 2.5t-91 5.5q2 -14 3.5 -27t1.5 -27t-1.5 -27t-3.5 -27q42 2 83.5 5t83.5 3v-88q0 -66 -1 -137.5t-6 -150.5q17 2 32.5 2h32.5h32.5t32.5 -2q-5 79 -6 150.5t-1 137.5v88
q42 0 83.5 -3t83.5 -5q-2 14 -3.5 27t-1.5 27t1.5 27t3.5 27q-48 -3 -91 -5.5t-76 -2.5q0 55 3 109.5t5 109.5z" />
    <glyph glyph-name="daggerdbl" unicode="&#x2021;" 
d="M224 337v-57v-28t-1 -28q-35 0 -78 2.5t-91 6.5q2 -14 3.5 -27.5t1.5 -27.5t-1.5 -27.5t-3.5 -27.5q42 2 83.5 3.5t84.5 1.5q-1 -30 -2.5 -65.5t-6.5 -64.5q17 2 33 2h32h32t33 -2q-5 29 -6.5 64.5t-2.5 65.5q43 0 84.5 -1.5t83.5 -3.5q-2 14 -3.5 27.5t-1.5 27.5
t1.5 27.5t3.5 27.5q-48 -4 -91 -6.5t-78 -2.5q-1 14 -1 28v28v57v56v28q0 15 1 29q45 0 86 -1.5t83 -3.5q-2 14 -3.5 27.5t-1.5 27.5t1.5 27.5t3.5 27.5q-48 -4 -91 -6.5t-77 -2.5q1 35 2.5 71t6.5 68q-17 -2 -33 -3.5t-32 -1.5t-32 1.5t-33 3.5q5 -32 6.5 -68t2.5 -71
q-34 0 -77 2.5t-91 6.5q2 -14 3.5 -27.5t1.5 -27.5t-1.5 -27.5t-3.5 -27.5q42 2 83 3.5t86 1.5q1 -14 1 -29v-28v-56z" />
    <glyph glyph-name="bullet" unicode="&#x2022;" horiz-adv-x="606" 
d="M133 340q0 -35 13.5 -66t36.5 -54t54 -36.5t66 -13.5t66 13.5t54 36.5t36.5 54t13.5 66t-13.5 66t-36.5 54t-54 36.5t-66 13.5t-66 -13.5t-54 -36.5t-36.5 -54t-13.5 -66z" />
    <glyph glyph-name="ellipsis" unicode="&#x2026;" horiz-adv-x="1000" 
d="M751 64q0 -34 24 -56.5t58 -22.5t58 22.5t24 56.5t-24 58t-58 24t-58 -24t-24 -58zM418 64q0 -34 24 -56.5t58 -22.5t58 22.5t24 56.5t-24 58t-58 24t-58 -24t-24 -58zM85 64q0 -34 24 -56.5t58 -22.5t58 22.5t24 56.5t-24 58t-58 24t-58 -24t-24 -58z" />
    <glyph glyph-name="perthousand" unicode="&#x2030;" horiz-adv-x="1000" 
d="M481 693l-348 -727q7 1 13.5 1.5t13.5 0.5t13.5 -0.5t13.5 -1.5l348 727q-7 -1 -13.5 -1.5t-13.5 -0.5t-13.5 0.5t-13.5 1.5zM905 170q0 -85 -14 -121.5t-44 -36.5q-13 0 -23.5 6t-18.5 21t-12.5 41t-4.5 65q0 69 18 104t44 35q29 0 42 -29.5t13 -84.5zM700 148
q0 -40 11.5 -70.5t31 -51t46 -30t56.5 -9.5q33 0 60.5 12t47 35t30 54.5t10.5 69.5q0 25 -8 52t-24.5 49.5t-43 37.5t-64.5 15q-34 0 -62 -12t-48.5 -34t-31.5 -52t-11 -66zM573 170q0 -85 -14 -121.5t-44 -36.5q-13 0 -23.5 6t-18.5 21t-12.5 41t-4.5 65q0 69 18 104t44 35
q29 0 42 -29.5t13 -84.5zM368 148q0 -40 11.5 -70.5t31 -51t46 -30t56.5 -9.5q33 0 60.5 12t47 35t30 54.5t10.5 69.5q0 25 -8 52t-24.5 49.5t-43 37.5t-64.5 15q-34 0 -62 -12t-48.5 -34t-31.5 -52t-11 -66zM212 530q0 -85 -14 -121.5t-44 -36.5q-13 0 -23.5 6t-18.5 21
t-12.5 41t-4.5 65q0 69 18 104t44 35q29 0 42 -29.5t13 -84.5zM7 508q0 -40 11.5 -70.5t31 -51.5t46 -31.5t56.5 -10.5q33 0 60.5 13t47 36.5t30 55.5t10.5 69q0 25 -8 52t-24.5 49.5t-43 37.5t-64.5 15q-34 0 -62 -12t-48.5 -34t-31.5 -52t-11 -66z" />
    <glyph glyph-name="guilsinglleft" unicode="&#x2039;" horiz-adv-x="333" 
d="M143 269q26 38 54.5 76t57.5 76q-32 17 -65 44q-30 -51 -62.5 -99t-64.5 -97q33 -51 65 -99.5t62 -99.5q33 27 66 45q-30 38 -58.5 77t-54.5 77z" />
    <glyph glyph-name="guilsinglright" unicode="&#x203a;" horiz-adv-x="333" 
d="M190 269q-26 -38 -54.5 -77t-58.5 -77q33 -18 66 -45q30 51 62 99.5t65 99.5q-32 49 -64.5 97t-62.5 99q-33 -27 -65 -44q29 -38 57.5 -76t54.5 -76z" />
    <glyph glyph-name="fraction" unicode="&#x2044;" horiz-adv-x="167" 
d="M192 682l-286 -705q18 3 36 3t36 -3l286 705q-18 -3 -36 -3t-36 3z" />
    <glyph glyph-name="Euro" unicode="&#x20ac;" 
d="M553 632q-40 20 -76 30.5t-83 10.5q-55 0 -104.5 -13t-89 -41t-67.5 -73t-41 -109h-1q-19 0 -33 0.5t-26 2.5q0 -23 -5 -40t-12 -32q14 2 32 2.5t35 0.5q-1 -4 -1 -12v-11v-40q-15 1 -27.5 2t-24.5 3q-3 -41 -17 -74q19 2 37.5 2.5t37.5 0.5q10 -69 37.5 -117.5
t67.5 -78.5t90.5 -43t107.5 -13q21 0 56.5 6.5t65.5 26.5q1 19 4.5 43t9.5 53l-14 2q-7 -13 -17 -26t-24 -23.5t-32 -17t-41 -6.5q-38 0 -66 14.5t-47.5 41t-31 62t-16.5 77.5h94h12q17 0 48.5 -1.5t54.5 -4.5q1 21 6.5 40t12.5 36q-27 -2 -58 -3.5t-60 -1.5h-115v23v20v10
t1 10h124h14q9 0 23.5 -0.5t30.5 -1t31.5 -1.5t26.5 -3q2 20 7.5 39.5t12.5 35.5q-29 -2 -55.5 -3t-60.5 -1h-149q13 88 50 132t112 44q24 0 43 -8.5t32.5 -20.5t22.5 -26.5t14 -26.5h9q4 21 12.5 47t19.5 55z" />
    <glyph glyph-name="trademark" unicode="&#x2122;" horiz-adv-x="975" 
d="M168 418q0 -42 -0.5 -80.5t-2.5 -61.5q11 1 23 1.5t24 0.5t24 -0.5t23 -1.5q-2 23 -2.5 61.5t-0.5 80.5q0 54 0.5 92.5t1 64t1 40.5t0.5 24h25q18 0 35 -1.5t49 -4.5q-1 6 -2 12.5t-1 13.5q0 6 1 12.5t2 12.5q-9 -1 -27.5 -2t-40.5 -1.5t-45 -0.5h-43h-43t-45 0.5
t-40 1.5t-28 2q1 -6 2 -12.5t1 -12.5q0 -7 -1 -13.5t-2 -12.5q32 3 49 4.5t35 1.5h25q0 -9 0.5 -24t1 -40.5t1 -64t0.5 -92.5zM609 276h26q5 14 20 46t34 71t39.5 81t37.5 76h2q7 -69 13 -137t9 -137q12 1 23.5 1.5t22.5 0.5q14 0 27 -0.5t27 -1.5q-16 102 -28 202.5
t-24 205.5q-11 -4 -25 -4t-26 4q-34 -72 -67.5 -142.5t-72.5 -142.5q-9 21 -26 55t-37 73.5t-40 80.5t-36 76q-11 -4 -26 -4q-11 0 -22 4q-14 -103 -28 -204t-33 -204q6 1 12 1.5t12 0.5q8 0 15.5 -0.5t15.5 -1.5q0 22 2.5 55t6.5 70.5t8.5 75t8.5 67.5h2q9 -22 25.5 -56
t35 -72t36.5 -75t30 -65z" />
    <glyph glyph-name="Omega" unicode="&#x2126;" horiz-adv-x="768" 
d="M330 0l-15 142q-44 15 -66 37q-36 31 -55.5 85t-19.5 126q0 125 63 195q50 56 150 56q96 0 152 -63t56 -189q0 -112 -51 -183q-31 -42 -90 -64l-16 -142h296v163h-17q-5 -19 -10 -31t-12.5 -18.5t-19 -8.5t-29.5 -2h-148v14q77 23 121 57.5t69 93.5q26 61 26 120
q0 76 -40 143q-38 69 -115 107q-73 37 -175 37q-100 0 -175.5 -37.5t-115.5 -106.5q-39 -69 -39 -143q0 -62 25.5 -120t69.5 -94q44 -35 122 -57v-14h-148q-18 0 -29.5 2t-19 8.5t-13 18.5t-10.5 31h-16v-163h295z" />
    <glyph glyph-name="partialdiff" unicode="&#x2202;" horiz-adv-x="494" 
d="M454 350q-13 27 -27 41q-21 22 -53.5 37t-72.5 15q-57 0 -113 -29q-30 -15 -58.5 -42t-50 -62t-35 -76.5t-13.5 -85.5q0 -75 45 -117.5t121 -42.5q129 0 214 151q75 137 75 310q1 68 -14.5 114.5t-41 75t-58 41.5t-65.5 14q-61 0 -104.5 -34.5t-81.5 -112.5h23
q26 39 60.5 58.5t86.5 19.5q76 0 122 -48t46 -136q0 -18 -1.5 -40.5t-3.5 -50.5zM445 307q-34 -151 -113 -231q-63 -63 -123 -63q-42 0 -68.5 30t-26.5 85q0 78 31 152q31 76 73 106q43 31 87 31q46 0 83.5 -28t56.5 -82z" />
    <glyph glyph-name="Delta" unicode="&#x2206;" horiz-adv-x="612" 
d="M599 0l-280 677l-306 -677h586zM483 40h-409l215 472z" />
    <glyph glyph-name="product" unicode="&#x220f;" horiz-adv-x="823" 
d="M605 655v-773q0 -42 -18 -59t-61 -17h-17v-18h292v18h-17q-43 0 -61 17t-18 59v718q0 40 18 57.5t61 17.5h17v18h-779v-18h18q43 0 61 -17.5t18 -57.5v-718q0 -42 -18 -59t-61 -17h-18v-18h292v18h-18q-43 0 -61 17t-18 59v773h388z" />
    <glyph glyph-name="summation" unicode="&#x2211;" horiz-adv-x="713" 
d="M662 -212l31 202l-19 4q-12 -51 -30.5 -74.5t-46.5 -32.5q-38 -13 -75 -13h-399l307 410l-274 370h361q54 0 84 -29t38 -96h19l-13 164h-624v-18l327 -433l-327 -436v-18h641z" />
    <glyph glyph-name="minus" unicode="&#x2212;" horiz-adv-x="606" 
d="M50 300v-94h506v94h-506z" />
    <glyph glyph-name="radical" unicode="&#x221a;" horiz-adv-x="549" 
d="M512 913l-127 -794l-198 402l-146 -74l16 -31l97 44l242 -496l152 949h-36z" />
    <glyph glyph-name="infinity" unicode="&#x221e;" horiz-adv-x="713" 
d="M319 326q-38 68 -69 89q-31 22 -74 22q-60 0 -105 -49t-45 -130t49 -130q48 -50 118 -50q53 0 90 26.5t69 87.5q47 -81 74 -104q42 -36 90 -36q66 0 118 58q53 59 53 147q0 92 -54 147q-55 57 -133 57q-68 0 -109 -30q-39 -28 -72 -105zM366 227q37 99 51 124
q20 38 45 55t59 17q53 0 95 -47q43 -46 43 -119q0 -36 -11 -65.5t-29.5 -50t-44.5 -32t-56 -11.5q-22 0 -42 5.5t-38.5 20t-36 39.5t-35.5 64zM305 288q-35 -103 -58 -130q-36 -42 -82 -42q-43 0 -78 39q-34 37 -34 104q0 30 9.5 55t25.5 42.5t38.5 27t47.5 9.5
q45 0 76 -25.5t55 -79.5z" />
    <glyph glyph-name="integral" unicode="&#x222b;" horiz-adv-x="274" 
d="M106 721l-8 -284q0 -93 6 -215q5 -94 12 -165q2 -19 3.5 -33.5t1.5 -23.5q0 -28 -19 -28q-10 0 -25 16q-14 12 -33 12t-31.5 -11.5t-12.5 -33.5q0 -26 16 -42.5t42 -16.5q40 0 65 33q39 50 44 191q4 129 6 200t2 88q0 123 -18 324q-2 26 -3.5 43.5t-1.5 27.5q0 17 6 24
t14 7q9 0 19 -10q20 -17 38 -17q19 0 31.5 13.5t12.5 36.5q0 20 -18 36.5t-43 16.5q-22 0 -45 -16t-36 -49q-10 -24 -16.5 -55t-8.5 -69z" />
    <glyph glyph-name="approxequal" unicode="&#x2248;" horiz-adv-x="549" 
d="M535 507h-21q-5 -45 -30 -68t-62 -23q-18 0 -32 3q-14 4 -33 11t-44 18q-46 20 -81 33t-61 20q-20 7 -43 7q-21 -1 -41.5 -10t-36.5 -26t-25.5 -41t-9.5 -56h21q9 46 32.5 67.5t57.5 21.5t108 -31q54 -22 87.5 -35t46.5 -17q22 -7 49 -7q48 0 82 35t36 98zM535 267h-21
q-5 -45 -30 -68t-62 -23q-21 0 -32 4q-14 4 -33.5 10.5t-43.5 17.5q-94 40 -142 54q-22 6 -44 6q-22 -1 -42 -10t-35.5 -25.5t-25 -41t-9.5 -57.5h21q9 48 32.5 69t57.5 21t108 -31l109 -45q51 -15 74 -15q48 0 82 35.5t36 98.5z" />
    <glyph glyph-name="notequal" unicode="&#x2260;" horiz-adv-x="549" 
d="M12 399v-45h278l-71 -181h-207v-46h189l-102 -256h39l103 256h296v46h-278l70 181h208v45h-190l101 261h-39l-103 -261h-294z" />
    <glyph glyph-name="lessequal" unicode="&#x2264;" horiz-adv-x="549" 
d="M536 120v50l-464 193l464 192v50l-524 -222v-40zM12 -32v-45h525v45h-525z" />
    <glyph glyph-name="greaterequal" unicode="&#x2265;" horiz-adv-x="549" 
d="M12 605v-50l464 -193l-464 -192v-50l524 222v40zM12 -32v-45h525v45h-525z" />
    <glyph glyph-name="lozenge" unicode="&#x25ca;" horiz-adv-x="494" 
d="M268 694h-54l-191 -348l191 -346h54l204 346zM242 647l175 -301l-175 -300l-166 300z" />
    <glyph glyph-name="apple" unicode="&#xf8ff;" horiz-adv-x="790" 
d="M408 588q-16 0 -69 15q-52 15 -89 15q-86 0 -143 -72q-56 -73 -56 -187q0 -124 74 -252q74 -127 150 -127q24 0 66 17q39 14 72 14q32 0 75 -13q44 -16 71 -16q65 0 129 95q21 32 36 63.5t25 61.5q-45 14 -79 63q-35 50 -35 112q0 57 33 103q18 26 57 60q-13 16 -26 28
t-26 22q-47 32 -107 32q-36 0 -87 -17t-71 -17zM561 790q0 4 -0.5 9t-2.5 12q-88 -20 -125.5 -74.5t-38.5 -128.5q32 3 51 8q26 9 55 36q31 32 46 69t15 69z" />
    </font>
</defs>
</svg>
